<?xml version="1.0" encoding="UTF-8" standalone="no"?>
<!DOCTYPE svg PUBLIC "-//W3C//DTD SVG 1.1//EN"
 "http://www.w3.org/Graphics/SVG/1.1/DTD/svg11.dtd">
<!-- Generated by graphviz version 11.0.0 (0)
 -->
<!-- Pages: 1 -->
<svg width="713pt" height="487pt"
 viewBox="0.00 0.00 713.00 486.50" xmlns="http://www.w3.org/2000/svg" xmlns:xlink="http://www.w3.org/1999/xlink">
<g id="graph0" class="graph" transform="scale(1 1) rotate(0) translate(4 482.5)">
<polygon fill="white" stroke="none" points="-4,4 -4,-482.5 709,-482.5 709,4 -4,4"/>
<!-- node1 -->
<g id="node1" class="node">
<title>node1</title>
<polygon fill="none" stroke="black" points="392.88,-36 270.38,-36 270.38,0 392.88,0 392.88,-36"/>
<text text-anchor="middle" x="331.62" y="-12.95" font-family="Times,serif" font-size="14.00">petal_length &gt; 2.45</text>
</g>
<!-- node3 -->
<g id="node2" class="node">
<title>node3</title>
<path fill="green" stroke="black" d="M341.12,-124.5C341.12,-124.5 286.12,-124.5 286.12,-124.5 280.12,-124.5 274.12,-118.5 274.12,-112.5 274.12,-112.5 274.12,-100.5 274.12,-100.5 274.12,-94.5 280.12,-88.5 286.12,-88.5 286.12,-88.5 341.12,-88.5 341.12,-88.5 347.12,-88.5 353.12,-94.5 353.12,-100.5 353.12,-100.5 353.12,-112.5 353.12,-112.5 353.12,-118.5 347.12,-124.5 341.12,-124.5"/>
<text text-anchor="middle" x="313.62" y="-101.45" font-family="Times,serif" font-size="14.00">Setosa 1.00</text>
</g>
<!-- node1&#45;&gt;node3 -->
<g id="edge1" class="edge">
<title>node1&#45;&gt;node3</title>
<path fill="none" stroke="black" d="M328.07,-36.09C325.64,-47.74 322.37,-63.45 319.56,-76.98"/>
<polygon fill="black" stroke="black" points="316.15,-76.16 317.54,-86.67 323.01,-77.59 316.15,-76.16"/>
<text text-anchor="middle" x="331.38" y="-57.2" font-family="Times,serif" font-size="14.00">no</text>
</g>
<!-- node2 -->
<g id="node3" class="node">
<title>node2</title>
<polygon fill="none" stroke="black" points="490.38,-124.5 370.88,-124.5 370.88,-88.5 490.38,-88.5 490.38,-124.5"/>
<text text-anchor="middle" x="430.62" y="-101.45" font-family="Times,serif" font-size="14.00">petal_width &gt; 1.75</text>
</g>
<!-- node1&#45;&gt;node2 -->
<g id="edge2" class="edge">
<title>node1&#45;&gt;node2</title>
<path fill="none" stroke="black" d="M351.18,-36.09C365.73,-48.8 385.81,-66.34 402.14,-80.61"/>
<polygon fill="black" stroke="black" points="399.79,-83.21 409.63,-87.15 404.4,-77.94 399.79,-83.21"/>
<text text-anchor="middle" x="399.62" y="-57.2" font-family="Times,serif" font-size="14.00">yes</text>
</g>
<!-- node5 -->
<g id="node4" class="node">
<title>node5</title>
<polygon fill="none" stroke="black" points="407.88,-213 285.38,-213 285.38,-177 407.88,-177 407.88,-213"/>
<text text-anchor="middle" x="346.62" y="-189.95" font-family="Times,serif" font-size="14.00">petal_length &gt; 4.95</text>
</g>
<!-- node2&#45;&gt;node5 -->
<g id="edge3" class="edge">
<title>node2&#45;&gt;node5</title>
<path fill="none" stroke="black" d="M414.03,-124.59C401.8,-137.18 384.96,-154.52 371.18,-168.71"/>
<polygon fill="black" stroke="black" points="368.98,-165.95 364.53,-175.56 374.01,-170.83 368.98,-165.95"/>
<text text-anchor="middle" x="403.38" y="-145.7" font-family="Times,serif" font-size="14.00">no</text>
</g>
<!-- node4 -->
<g id="node13" class="node">
<title>node4</title>
<polygon fill="none" stroke="black" points="592.88,-213 470.38,-213 470.38,-177 592.88,-177 592.88,-213"/>
<text text-anchor="middle" x="531.62" y="-189.95" font-family="Times,serif" font-size="14.00">petal_length &gt; 4.85</text>
</g>
<!-- node2&#45;&gt;node4 -->
<g id="edge12" class="edge">
<title>node2&#45;&gt;node4</title>
<path fill="none" stroke="black" d="M450.58,-124.59C465.56,-137.42 486.28,-155.17 503.03,-169.51"/>
<polygon fill="black" stroke="black" points="500.34,-171.82 510.22,-175.67 504.9,-166.5 500.34,-171.82"/>
<text text-anchor="middle" x="499.62" y="-145.7" font-family="Times,serif" font-size="14.00">yes</text>
</g>
<!-- node11 -->
<g id="node5" class="node">
<title>node11</title>
<polygon fill="none" stroke="black" points="224.38,-301.5 104.88,-301.5 104.88,-265.5 224.38,-265.5 224.38,-301.5"/>
<text text-anchor="middle" x="164.62" y="-278.45" font-family="Times,serif" font-size="14.00">petal_width &gt; 1.65</text>
</g>
<!-- node5&#45;&gt;node11 -->
<g id="edge4" class="edge">
<title>node5&#45;&gt;node11</title>
<path fill="none" stroke="black" d="M310.23,-213.3C281.81,-226.81 242.1,-245.68 211.33,-260.3"/>
<polygon fill="black" stroke="black" points="210.16,-256.98 202.63,-264.44 213.17,-263.3 210.16,-256.98"/>
<text text-anchor="middle" x="279.38" y="-234.2" font-family="Times,serif" font-size="14.00">no</text>
</g>
<!-- node10 -->
<g id="node8" class="node">
<title>node10</title>
<polygon fill="none" stroke="black" points="406.38,-301.5 286.88,-301.5 286.88,-265.5 406.38,-265.5 406.38,-301.5"/>
<text text-anchor="middle" x="346.62" y="-278.45" font-family="Times,serif" font-size="14.00">petal_width &gt; 1.55</text>
</g>
<!-- node5&#45;&gt;node10 -->
<g id="edge7" class="edge">
<title>node5&#45;&gt;node10</title>
<path fill="none" stroke="black" d="M346.62,-213.09C346.62,-224.74 346.62,-240.45 346.62,-253.98"/>
<polygon fill="black" stroke="black" points="343.13,-253.64 346.63,-263.64 350.13,-253.64 343.13,-253.64"/>
<text text-anchor="middle" x="355.62" y="-234.2" font-family="Times,serif" font-size="14.00">yes</text>
</g>
<!-- node23 -->
<g id="node6" class="node">
<title>node23</title>
<path fill="green" stroke="black" d="M87.25,-390C87.25,-390 12,-390 12,-390 6,-390 0,-384 0,-378 0,-378 0,-366 0,-366 0,-360 6,-354 12,-354 12,-354 87.25,-354 87.25,-354 93.25,-354 99.25,-360 99.25,-366 99.25,-366 99.25,-378 99.25,-378 99.25,-384 93.25,-390 87.25,-390"/>
<text text-anchor="middle" x="49.62" y="-366.95" font-family="Times,serif" font-size="14.00">Versicolor 1.00</text>
</g>
<!-- node11&#45;&gt;node23 -->
<g id="edge5" class="edge">
<title>node11&#45;&gt;node23</title>
<path fill="none" stroke="black" d="M141.63,-301.8C124.47,-314.7 100.81,-332.5 81.78,-346.82"/>
<polygon fill="black" stroke="black" points="79.68,-344.02 73.79,-352.82 83.89,-349.61 79.68,-344.02"/>
<text text-anchor="middle" x="124.38" y="-322.7" font-family="Times,serif" font-size="14.00">no</text>
</g>
<!-- node22 -->
<g id="node7" class="node">
<title>node22</title>
<path fill="green" stroke="black" d="M200,-390C200,-390 129.25,-390 129.25,-390 123.25,-390 117.25,-384 117.25,-378 117.25,-378 117.25,-366 117.25,-366 117.25,-360 123.25,-354 129.25,-354 129.25,-354 200,-354 200,-354 206,-354 212,-360 212,-366 212,-366 212,-378 212,-378 212,-384 206,-390 200,-390"/>
<text text-anchor="middle" x="164.62" y="-366.95" font-family="Times,serif" font-size="14.00">Virginica 1.00</text>
</g>
<!-- node11&#45;&gt;node22 -->
<g id="edge6" class="edge">
<title>node11&#45;&gt;node22</title>
<path fill="none" stroke="black" d="M164.62,-301.59C164.62,-313.24 164.62,-328.95 164.62,-342.48"/>
<polygon fill="black" stroke="black" points="161.13,-342.14 164.63,-352.14 168.13,-342.14 161.13,-342.14"/>
<text text-anchor="middle" x="173.62" y="-322.7" font-family="Times,serif" font-size="14.00">yes</text>
</g>
<!-- node21 -->
<g id="node9" class="node">
<title>node21</title>
<path fill="green" stroke="black" d="M313,-390C313,-390 242.25,-390 242.25,-390 236.25,-390 230.25,-384 230.25,-378 230.25,-378 230.25,-366 230.25,-366 230.25,-360 236.25,-354 242.25,-354 242.25,-354 313,-354 313,-354 319,-354 325,-360 325,-366 325,-366 325,-378 325,-378 325,-384 319,-390 313,-390"/>
<text text-anchor="middle" x="277.62" y="-366.95" font-family="Times,serif" font-size="14.00">Virginica 1.00</text>
</g>
<!-- node10&#45;&gt;node21 -->
<g id="edge8" class="edge">
<title>node10&#45;&gt;node21</title>
<path fill="none" stroke="black" d="M332.99,-301.59C323.13,-313.95 309.63,-330.87 298.43,-344.92"/>
<polygon fill="black" stroke="black" points="295.91,-342.47 292.41,-352.47 301.38,-346.83 295.91,-342.47"/>
<text text-anchor="middle" x="325.38" y="-322.7" font-family="Times,serif" font-size="14.00">no</text>
</g>
<!-- node20 -->
<g id="node10" class="node">
<title>node20</title>
<polygon fill="none" stroke="black" points="466.62,-390 342.62,-390 342.62,-354 466.62,-354 466.62,-390"/>
<text text-anchor="middle" x="404.62" y="-366.95" font-family="Times,serif" font-size="14.00">sepal_length &gt; 6.95</text>
</g>
<!-- node10&#45;&gt;node20 -->
<g id="edge9" class="edge">
<title>node10&#45;&gt;node20</title>
<path fill="none" stroke="black" d="M358.08,-301.59C366.21,-313.71 377.29,-330.23 386.59,-344.11"/>
<polygon fill="black" stroke="black" points="383.67,-346.04 392.15,-352.39 389.49,-342.14 383.67,-346.04"/>
<text text-anchor="middle" x="390.62" y="-322.7" font-family="Times,serif" font-size="14.00">yes</text>
</g>
<!-- node41 -->
<g id="node11" class="node">
<title>node41</title>
<path fill="green" stroke="black" d="M384.25,-478.5C384.25,-478.5 309,-478.5 309,-478.5 303,-478.5 297,-472.5 297,-466.5 297,-466.5 297,-454.5 297,-454.5 297,-448.5 303,-442.5 309,-442.5 309,-442.5 384.25,-442.5 384.25,-442.5 390.25,-442.5 396.25,-448.5 396.25,-454.5 396.25,-454.5 396.25,-466.5 396.25,-466.5 396.25,-472.5 390.25,-478.5 384.25,-478.5"/>
<text text-anchor="middle" x="346.62" y="-455.45" font-family="Times,serif" font-size="14.00">Versicolor 1.00</text>
</g>
<!-- node20&#45;&gt;node41 -->
<g id="edge10" class="edge">
<title>node20&#45;&gt;node41</title>
<path fill="none" stroke="black" d="M393.17,-390.09C385.04,-402.21 373.96,-418.73 364.66,-432.61"/>
<polygon fill="black" stroke="black" points="361.76,-430.64 359.1,-440.89 367.58,-434.54 361.76,-430.64"/>
<text text-anchor="middle" x="388.38" y="-411.2" font-family="Times,serif" font-size="14.00">no</text>
</g>
<!-- node40 -->
<g id="node12" class="node">
<title>node40</title>
<path fill="green" stroke="black" d="M497,-478.5C497,-478.5 426.25,-478.5 426.25,-478.5 420.25,-478.5 414.25,-472.5 414.25,-466.5 414.25,-466.5 414.25,-454.5 414.25,-454.5 414.25,-448.5 420.25,-442.5 426.25,-442.5 426.25,-442.5 497,-442.5 497,-442.5 503,-442.5 509,-448.5 509,-454.5 509,-454.5 509,-466.5 509,-466.5 509,-472.5 503,-478.5 497,-478.5"/>
<text text-anchor="middle" x="461.62" y="-455.45" font-family="Times,serif" font-size="14.00">Virginica 1.00</text>
</g>
<!-- node20&#45;&gt;node40 -->
<g id="edge11" class="edge">
<title>node20&#45;&gt;node40</title>
<path fill="none" stroke="black" d="M415.89,-390.09C423.88,-402.21 434.76,-418.73 443.91,-432.61"/>
<polygon fill="black" stroke="black" points="440.93,-434.46 449.36,-440.89 446.78,-430.61 440.93,-434.46"/>
<text text-anchor="middle" x="447.62" y="-411.2" font-family="Times,serif" font-size="14.00">yes</text>
</g>
<!-- node9 -->
<g id="node14" class="node">
<title>node9</title>
<polygon fill="none" stroke="black" points="592.12,-301.5 471.12,-301.5 471.12,-265.5 592.12,-265.5 592.12,-301.5"/>
<text text-anchor="middle" x="531.62" y="-278.45" font-family="Times,serif" font-size="14.00">sepal_width &gt; 3.10</text>
</g>
<!-- node4&#45;&gt;node9 -->
<g id="edge13" class="edge">
<title>node4&#45;&gt;node9</title>
<path fill="none" stroke="black" d="M531.62,-213.09C531.62,-224.74 531.62,-240.45 531.62,-253.98"/>
<polygon fill="black" stroke="black" points="528.13,-253.64 531.63,-263.64 535.13,-253.64 528.13,-253.64"/>
<text text-anchor="middle" x="538.38" y="-234.2" font-family="Times,serif" font-size="14.00">no</text>
</g>
<!-- node8 -->
<g id="node17" class="node">
<title>node8</title>
<path fill="green" stroke="black" d="M693,-301.5C693,-301.5 622.25,-301.5 622.25,-301.5 616.25,-301.5 610.25,-295.5 610.25,-289.5 610.25,-289.5 610.25,-277.5 610.25,-277.5 610.25,-271.5 616.25,-265.5 622.25,-265.5 622.25,-265.5 693,-265.5 693,-265.5 699,-265.5 705,-271.5 705,-277.5 705,-277.5 705,-289.5 705,-289.5 705,-295.5 699,-301.5 693,-301.5"/>
<text text-anchor="middle" x="657.62" y="-278.45" font-family="Times,serif" font-size="14.00">Virginica 1.00</text>
</g>
<!-- node4&#45;&gt;node8 -->
<g id="edge16" class="edge">
<title>node4&#45;&gt;node8</title>
<path fill="none" stroke="black" d="M556.82,-213.3C575.88,-226.38 602.26,-244.49 623.25,-258.9"/>
<polygon fill="black" stroke="black" points="621,-261.6 631.23,-264.38 624.96,-255.83 621,-261.6"/>
<text text-anchor="middle" x="614.62" y="-234.2" font-family="Times,serif" font-size="14.00">yes</text>
</g>
<!-- node19 -->
<g id="node15" class="node">
<title>node19</title>
<path fill="green" stroke="black" d="M567,-390C567,-390 496.25,-390 496.25,-390 490.25,-390 484.25,-384 484.25,-378 484.25,-378 484.25,-366 484.25,-366 484.25,-360 490.25,-354 496.25,-354 496.25,-354 567,-354 567,-354 573,-354 579,-360 579,-366 579,-366 579,-378 579,-378 579,-384 573,-390 567,-390"/>
<text text-anchor="middle" x="531.62" y="-366.95" font-family="Times,serif" font-size="14.00">Virginica 1.00</text>
</g>
<!-- node9&#45;&gt;node19 -->
<g id="edge14" class="edge">
<title>node9&#45;&gt;node19</title>
<path fill="none" stroke="black" d="M531.62,-301.59C531.62,-313.24 531.62,-328.95 531.62,-342.48"/>
<polygon fill="black" stroke="black" points="528.13,-342.14 531.63,-352.14 535.13,-342.14 528.13,-342.14"/>
<text text-anchor="middle" x="538.38" y="-322.7" font-family="Times,serif" font-size="14.00">no</text>
</g>
<!-- node18 -->
<g id="node16" class="node">
<title>node18</title>
<path fill="green" stroke="black" d="M684.25,-390C684.25,-390 609,-390 609,-390 603,-390 597,-384 597,-378 597,-378 597,-366 597,-366 597,-360 603,-354 609,-354 609,-354 684.25,-354 684.25,-354 690.25,-354 696.25,-360 696.25,-366 696.25,-366 696.25,-378 696.25,-378 696.25,-384 690.25,-390 684.25,-390"/>
<text text-anchor="middle" x="646.62" y="-366.95" font-family="Times,serif" font-size="14.00">Versicolor 1.00</text>
</g>
<!-- node9&#45;&gt;node18 -->
<g id="edge15" class="edge">
<title>node9&#45;&gt;node18</title>
<path fill="none" stroke="black" d="M554.62,-301.8C571.78,-314.7 595.44,-332.5 614.47,-346.82"/>
<polygon fill="black" stroke="black" points="612.36,-349.61 622.46,-352.82 616.57,-344.02 612.36,-349.61"/>
<text text-anchor="middle" x="607.62" y="-322.7" font-family="Times,serif" font-size="14.00">yes</text>
</g>
</g>
</svg>
