<?xml version="1.0" encoding="UTF-8" standalone="no"?>
<!DOCTYPE svg PUBLIC "-//W3C//DTD SVG 1.1//EN"
 "http://www.w3.org/Graphics/SVG/1.1/DTD/svg11.dtd">
<!-- Generated by graphviz version 11.0.0 (0)
 -->
<!-- Pages: 1 -->
<svg width="656pt" height="487pt"
 viewBox="0.00 0.00 655.75 486.50" xmlns="http://www.w3.org/2000/svg" xmlns:xlink="http://www.w3.org/1999/xlink">
<g id="graph0" class="graph" transform="scale(1 1) rotate(0) translate(4 482.5)">
<polygon fill="white" stroke="none" points="-4,4 -4,-482.5 651.75,-482.5 651.75,4 -4,4"/>
<!-- node1 -->
<g id="node1" class="node">
<title>node1</title>
<polygon fill="none" stroke="black" points="373.38,-36 236.62,-36 236.62,0 373.38,0 373.38,-36"/>
<text text-anchor="middle" x="305" y="-12.95" font-family="Times,serif" font-size="14.00">petal_width &gt; 8.00e&#45;1</text>
</g>
<!-- node3 -->
<g id="node2" class="node">
<title>node3</title>
<path fill="green" stroke="black" d="M305.88,-124.5C305.88,-124.5 268.12,-124.5 268.12,-124.5 262.12,-124.5 256.12,-118.5 256.12,-112.5 256.12,-112.5 256.12,-100.5 256.12,-100.5 256.12,-94.5 262.12,-88.5 268.12,-88.5 268.12,-88.5 305.88,-88.5 305.88,-88.5 311.88,-88.5 317.88,-94.5 317.88,-100.5 317.88,-100.5 317.88,-112.5 317.88,-112.5 317.88,-118.5 311.88,-124.5 305.88,-124.5"/>
<text text-anchor="middle" x="287" y="-101.45" font-family="Times,serif" font-size="14.00">Setosa 1</text>
</g>
<!-- node1&#45;&gt;node3 -->
<g id="edge1" class="edge">
<title>node1&#45;&gt;node3</title>
<path fill="none" stroke="black" d="M301.44,-36.09C299.02,-47.74 295.75,-63.45 292.93,-76.98"/>
<polygon fill="black" stroke="black" points="289.53,-76.16 290.92,-86.67 296.38,-77.59 289.53,-76.16"/>
<text text-anchor="middle" x="304.75" y="-57.2" font-family="Times,serif" font-size="14.00">no</text>
</g>
<!-- node2 -->
<g id="node3" class="node">
<title>node2</title>
<polygon fill="none" stroke="black" points="468.12,-124.5 335.88,-124.5 335.88,-88.5 468.12,-88.5 468.12,-124.5"/>
<text text-anchor="middle" x="402" y="-101.45" font-family="Times,serif" font-size="14.00">petal_width &gt; 1.75e0</text>
</g>
<!-- node1&#45;&gt;node2 -->
<g id="edge2" class="edge">
<title>node1&#45;&gt;node2</title>
<path fill="none" stroke="black" d="M324.16,-36.09C338.42,-48.8 358.09,-66.34 374.09,-80.61"/>
<polygon fill="black" stroke="black" points="371.62,-83.1 381.41,-87.14 376.28,-77.87 371.62,-83.1"/>
<text text-anchor="middle" x="372" y="-57.2" font-family="Times,serif" font-size="14.00">yes</text>
</g>
<!-- node5 -->
<g id="node4" class="node">
<title>node5</title>
<polygon fill="none" stroke="black" points="378.62,-213 243.38,-213 243.38,-177 378.62,-177 378.62,-213"/>
<text text-anchor="middle" x="311" y="-189.95" font-family="Times,serif" font-size="14.00">petal_length &gt; 4.95e0</text>
</g>
<!-- node2&#45;&gt;node5 -->
<g id="edge3" class="edge">
<title>node2&#45;&gt;node5</title>
<path fill="none" stroke="black" d="M384.02,-124.59C370.65,-137.3 352.19,-154.84 337.18,-169.11"/>
<polygon fill="black" stroke="black" points="335.19,-166.18 330.35,-175.61 340.01,-171.25 335.19,-166.18"/>
<text text-anchor="middle" x="371.75" y="-145.7" font-family="Times,serif" font-size="14.00">no</text>
</g>
<!-- node4 -->
<g id="node13" class="node">
<title>node4</title>
<polygon fill="none" stroke="black" points="552.62,-213 417.38,-213 417.38,-177 552.62,-177 552.62,-213"/>
<text text-anchor="middle" x="485" y="-189.95" font-family="Times,serif" font-size="14.00">petal_length &gt; 4.85e0</text>
</g>
<!-- node2&#45;&gt;node4 -->
<g id="edge12" class="edge">
<title>node2&#45;&gt;node4</title>
<path fill="none" stroke="black" d="M418.4,-124.59C430.48,-137.18 447.12,-154.52 460.74,-168.71"/>
<polygon fill="black" stroke="black" points="457.85,-170.77 467.3,-175.56 462.91,-165.92 457.85,-170.77"/>
<text text-anchor="middle" x="460" y="-145.7" font-family="Times,serif" font-size="14.00">yes</text>
</g>
<!-- node11 -->
<g id="node5" class="node">
<title>node11</title>
<polygon fill="none" stroke="black" points="205.12,-301.5 72.88,-301.5 72.88,-265.5 205.12,-265.5 205.12,-301.5"/>
<text text-anchor="middle" x="139" y="-278.45" font-family="Times,serif" font-size="14.00">petal_width &gt; 1.65e0</text>
</g>
<!-- node5&#45;&gt;node11 -->
<g id="edge4" class="edge">
<title>node5&#45;&gt;node11</title>
<path fill="none" stroke="black" d="M276.61,-213.3C249.98,-226.69 212.87,-245.35 183.9,-259.92"/>
<polygon fill="black" stroke="black" points="182.34,-256.79 174.98,-264.41 185.49,-263.04 182.34,-256.79"/>
<text text-anchor="middle" x="247.75" y="-234.2" font-family="Times,serif" font-size="14.00">no</text>
</g>
<!-- node10 -->
<g id="node8" class="node">
<title>node10</title>
<polygon fill="none" stroke="black" points="377.12,-301.5 244.88,-301.5 244.88,-265.5 377.12,-265.5 377.12,-301.5"/>
<text text-anchor="middle" x="311" y="-278.45" font-family="Times,serif" font-size="14.00">petal_width &gt; 1.55e0</text>
</g>
<!-- node5&#45;&gt;node10 -->
<g id="edge7" class="edge">
<title>node5&#45;&gt;node10</title>
<path fill="none" stroke="black" d="M311,-213.09C311,-224.74 311,-240.45 311,-253.98"/>
<polygon fill="black" stroke="black" points="307.5,-253.64 311,-263.64 314.5,-253.64 307.5,-253.64"/>
<text text-anchor="middle" x="320" y="-234.2" font-family="Times,serif" font-size="14.00">yes</text>
</g>
<!-- node23 -->
<g id="node6" class="node">
<title>node23</title>
<path fill="green" stroke="black" d="M70,-390C70,-390 12,-390 12,-390 6,-390 0,-384 0,-378 0,-378 0,-366 0,-366 0,-360 6,-354 12,-354 12,-354 70,-354 70,-354 76,-354 82,-360 82,-366 82,-366 82,-378 82,-378 82,-384 76,-390 70,-390"/>
<text text-anchor="middle" x="41" y="-366.95" font-family="Times,serif" font-size="14.00">Versicolor 1</text>
</g>
<!-- node11&#45;&gt;node23 -->
<g id="edge5" class="edge">
<title>node11&#45;&gt;node23</title>
<path fill="none" stroke="black" d="M119.64,-301.59C105.24,-314.3 85.36,-331.84 69.2,-346.11"/>
<polygon fill="black" stroke="black" points="66.97,-343.41 61.79,-352.65 71.61,-348.65 66.97,-343.41"/>
<text text-anchor="middle" x="105.75" y="-322.7" font-family="Times,serif" font-size="14.00">no</text>
</g>
<!-- node22 -->
<g id="node7" class="node">
<title>node22</title>
<path fill="green" stroke="black" d="M165.75,-390C165.75,-390 112.25,-390 112.25,-390 106.25,-390 100.25,-384 100.25,-378 100.25,-378 100.25,-366 100.25,-366 100.25,-360 106.25,-354 112.25,-354 112.25,-354 165.75,-354 165.75,-354 171.75,-354 177.75,-360 177.75,-366 177.75,-366 177.75,-378 177.75,-378 177.75,-384 171.75,-390 165.75,-390"/>
<text text-anchor="middle" x="139" y="-366.95" font-family="Times,serif" font-size="14.00">Virginica 1</text>
</g>
<!-- node11&#45;&gt;node22 -->
<g id="edge6" class="edge">
<title>node11&#45;&gt;node22</title>
<path fill="none" stroke="black" d="M139,-301.59C139,-313.24 139,-328.95 139,-342.48"/>
<polygon fill="black" stroke="black" points="135.5,-342.14 139,-352.14 142.5,-342.14 135.5,-342.14"/>
<text text-anchor="middle" x="148" y="-322.7" font-family="Times,serif" font-size="14.00">yes</text>
</g>
<!-- node21 -->
<g id="node9" class="node">
<title>node21</title>
<path fill="green" stroke="black" d="M261.75,-390C261.75,-390 208.25,-390 208.25,-390 202.25,-390 196.25,-384 196.25,-378 196.25,-378 196.25,-366 196.25,-366 196.25,-360 202.25,-354 208.25,-354 208.25,-354 261.75,-354 261.75,-354 267.75,-354 273.75,-360 273.75,-366 273.75,-366 273.75,-378 273.75,-378 273.75,-384 267.75,-390 261.75,-390"/>
<text text-anchor="middle" x="235" y="-366.95" font-family="Times,serif" font-size="14.00">Virginica 1</text>
</g>
<!-- node10&#45;&gt;node21 -->
<g id="edge8" class="edge">
<title>node10&#45;&gt;node21</title>
<path fill="none" stroke="black" d="M295.98,-301.59C285.02,-314.07 269.97,-331.2 257.57,-345.32"/>
<polygon fill="black" stroke="black" points="255.21,-342.69 251.24,-352.51 260.47,-347.31 255.21,-342.69"/>
<text text-anchor="middle" x="286.75" y="-322.7" font-family="Times,serif" font-size="14.00">no</text>
</g>
<!-- node20 -->
<g id="node10" class="node">
<title>node20</title>
<polygon fill="none" stroke="black" points="428.38,-390 291.62,-390 291.62,-354 428.38,-354 428.38,-390"/>
<text text-anchor="middle" x="360" y="-366.95" font-family="Times,serif" font-size="14.00">sepal_length &gt; 6.95e0</text>
</g>
<!-- node10&#45;&gt;node20 -->
<g id="edge9" class="edge">
<title>node10&#45;&gt;node20</title>
<path fill="none" stroke="black" d="M320.68,-301.59C327.48,-313.6 336.72,-329.91 344.54,-343.7"/>
<polygon fill="black" stroke="black" points="341.45,-345.36 349.43,-352.33 347.54,-341.91 341.45,-345.36"/>
<text text-anchor="middle" x="349" y="-322.7" font-family="Times,serif" font-size="14.00">yes</text>
</g>
<!-- node41 -->
<g id="node11" class="node">
<title>node41</title>
<path fill="green" stroke="black" d="M340,-478.5C340,-478.5 282,-478.5 282,-478.5 276,-478.5 270,-472.5 270,-466.5 270,-466.5 270,-454.5 270,-454.5 270,-448.5 276,-442.5 282,-442.5 282,-442.5 340,-442.5 340,-442.5 346,-442.5 352,-448.5 352,-454.5 352,-454.5 352,-466.5 352,-466.5 352,-472.5 346,-478.5 340,-478.5"/>
<text text-anchor="middle" x="311" y="-455.45" font-family="Times,serif" font-size="14.00">Versicolor 1</text>
</g>
<!-- node20&#45;&gt;node41 -->
<g id="edge10" class="edge">
<title>node20&#45;&gt;node41</title>
<path fill="none" stroke="black" d="M350.32,-390.09C343.52,-402.1 334.28,-418.41 326.46,-432.2"/>
<polygon fill="black" stroke="black" points="323.46,-430.41 321.57,-440.83 329.55,-433.86 323.46,-430.41"/>
<text text-anchor="middle" x="346.75" y="-411.2" font-family="Times,serif" font-size="14.00">no</text>
</g>
<!-- node40 -->
<g id="node12" class="node">
<title>node40</title>
<path fill="green" stroke="black" d="M435.75,-478.5C435.75,-478.5 382.25,-478.5 382.25,-478.5 376.25,-478.5 370.25,-472.5 370.25,-466.5 370.25,-466.5 370.25,-454.5 370.25,-454.5 370.25,-448.5 376.25,-442.5 382.25,-442.5 382.25,-442.5 435.75,-442.5 435.75,-442.5 441.75,-442.5 447.75,-448.5 447.75,-454.5 447.75,-454.5 447.75,-466.5 447.75,-466.5 447.75,-472.5 441.75,-478.5 435.75,-478.5"/>
<text text-anchor="middle" x="409" y="-455.45" font-family="Times,serif" font-size="14.00">Virginica 1</text>
</g>
<!-- node20&#45;&gt;node40 -->
<g id="edge11" class="edge">
<title>node20&#45;&gt;node40</title>
<path fill="none" stroke="black" d="M369.68,-390.09C376.48,-402.1 385.72,-418.41 393.54,-432.2"/>
<polygon fill="black" stroke="black" points="390.45,-433.86 398.43,-440.83 396.54,-430.41 390.45,-433.86"/>
<text text-anchor="middle" x="398" y="-411.2" font-family="Times,serif" font-size="14.00">yes</text>
</g>
<!-- node9 -->
<g id="node14" class="node">
<title>node9</title>
<polygon fill="none" stroke="black" points="551.88,-301.5 418.12,-301.5 418.12,-265.5 551.88,-265.5 551.88,-301.5"/>
<text text-anchor="middle" x="485" y="-278.45" font-family="Times,serif" font-size="14.00">sepal_width &gt; 3.10e0</text>
</g>
<!-- node4&#45;&gt;node9 -->
<g id="edge13" class="edge">
<title>node4&#45;&gt;node9</title>
<path fill="none" stroke="black" d="M485,-213.09C485,-224.74 485,-240.45 485,-253.98"/>
<polygon fill="black" stroke="black" points="481.5,-253.64 485,-263.64 488.5,-253.64 481.5,-253.64"/>
<text text-anchor="middle" x="491.75" y="-234.2" font-family="Times,serif" font-size="14.00">no</text>
</g>
<!-- node8 -->
<g id="node17" class="node">
<title>node8</title>
<path fill="green" stroke="black" d="M635.75,-301.5C635.75,-301.5 582.25,-301.5 582.25,-301.5 576.25,-301.5 570.25,-295.5 570.25,-289.5 570.25,-289.5 570.25,-277.5 570.25,-277.5 570.25,-271.5 576.25,-265.5 582.25,-265.5 582.25,-265.5 635.75,-265.5 635.75,-265.5 641.75,-265.5 647.75,-271.5 647.75,-277.5 647.75,-277.5 647.75,-289.5 647.75,-289.5 647.75,-295.5 641.75,-301.5 635.75,-301.5"/>
<text text-anchor="middle" x="609" y="-278.45" font-family="Times,serif" font-size="14.00">Virginica 1</text>
</g>
<!-- node4&#45;&gt;node8 -->
<g id="edge16" class="edge">
<title>node4&#45;&gt;node8</title>
<path fill="none" stroke="black" d="M509.8,-213.3C528.47,-226.32 554.28,-244.33 574.89,-258.71"/>
<polygon fill="black" stroke="black" points="572.8,-261.52 583.01,-264.37 576.81,-255.78 572.8,-261.52"/>
<text text-anchor="middle" x="567" y="-234.2" font-family="Times,serif" font-size="14.00">yes</text>
</g>
<!-- node19 -->
<g id="node15" class="node">
<title>node19</title>
<path fill="green" stroke="black" d="M511.75,-390C511.75,-390 458.25,-390 458.25,-390 452.25,-390 446.25,-384 446.25,-378 446.25,-378 446.25,-366 446.25,-366 446.25,-360 452.25,-354 458.25,-354 458.25,-354 511.75,-354 511.75,-354 517.75,-354 523.75,-360 523.75,-366 523.75,-366 523.75,-378 523.75,-378 523.75,-384 517.75,-390 511.75,-390"/>
<text text-anchor="middle" x="485" y="-366.95" font-family="Times,serif" font-size="14.00">Virginica 1</text>
</g>
<!-- node9&#45;&gt;node19 -->
<g id="edge14" class="edge">
<title>node9&#45;&gt;node19</title>
<path fill="none" stroke="black" d="M485,-301.59C485,-313.24 485,-328.95 485,-342.48"/>
<polygon fill="black" stroke="black" points="481.5,-342.14 485,-352.14 488.5,-342.14 481.5,-342.14"/>
<text text-anchor="middle" x="491.75" y="-322.7" font-family="Times,serif" font-size="14.00">no</text>
</g>
<!-- node18 -->
<g id="node16" class="node">
<title>node18</title>
<path fill="green" stroke="black" d="M612,-390C612,-390 554,-390 554,-390 548,-390 542,-384 542,-378 542,-378 542,-366 542,-366 542,-360 548,-354 554,-354 554,-354 612,-354 612,-354 618,-354 624,-360 624,-366 624,-366 624,-378 624,-378 624,-384 618,-390 612,-390"/>
<text text-anchor="middle" x="583" y="-366.95" font-family="Times,serif" font-size="14.00">Versicolor 1</text>
</g>
<!-- node9&#45;&gt;node18 -->
<g id="edge15" class="edge">
<title>node9&#45;&gt;node18</title>
<path fill="none" stroke="black" d="M504.36,-301.59C518.76,-314.3 538.64,-331.84 554.8,-346.11"/>
<polygon fill="black" stroke="black" points="552.39,-348.65 562.21,-352.65 557.03,-343.41 552.39,-348.65"/>
<text text-anchor="middle" x="551" y="-322.7" font-family="Times,serif" font-size="14.00">yes</text>
</g>
</g>
</svg>
