<?xml version="1.0" encoding="UTF-8" standalone="no"?>
<!DOCTYPE svg PUBLIC "-//W3C//DTD SVG 1.1//EN"
 "http://www.w3.org/Graphics/SVG/1.1/DTD/svg11.dtd">
<!-- Generated by graphviz version 11.0.0 (0)
 -->
<!-- Pages: 1 -->
<svg width="713pt" height="512pt"
 viewBox="0.00 0.00 713.00 511.50" xmlns="http://www.w3.org/2000/svg" xmlns:xlink="http://www.w3.org/1999/xlink">
<g id="graph0" class="graph" transform="scale(1 1) rotate(0) translate(4 507.5)">
<polygon fill="white" stroke="none" points="-4,4 -4,-507.5 709,-507.5 709,4 -4,4"/>
<!-- node1 -->
<g id="node1" class="node">
<title>node1</title>
<polygon fill="none" stroke="black" points="392.88,-41 270.38,-41 270.38,0 392.88,0 392.88,-41"/>
<text text-anchor="middle" x="331.62" y="-23.7" font-family="Times,serif" font-size="14.00">petal_length &gt; 2.45</text>
<text text-anchor="middle" x="331.62" y="-7.2" font-family="Times,serif" font-size="14.00">gini: 3.33e&#45;1</text>
</g>
<!-- node3 -->
<g id="node2" class="node">
<title>node3</title>
<path fill="green" stroke="black" d="M341.12,-132C341.12,-132 286.12,-132 286.12,-132 280.12,-132 274.12,-126 274.12,-120 274.12,-120 274.12,-108 274.12,-108 274.12,-102 280.12,-96 286.12,-96 286.12,-96 341.12,-96 341.12,-96 347.12,-96 353.12,-102 353.12,-108 353.12,-108 353.12,-120 353.12,-120 353.12,-126 347.12,-132 341.12,-132"/>
<text text-anchor="middle" x="313.62" y="-108.95" font-family="Times,serif" font-size="14.00">Setosa 1.00</text>
</g>
<!-- node1&#45;&gt;node3 -->
<g id="edge1" class="edge">
<title>node1&#45;&gt;node3</title>
<path fill="none" stroke="black" d="M327.72,-41.35C325.23,-54 321.97,-70.59 319.21,-84.61"/>
<polygon fill="black" stroke="black" points="315.83,-83.68 317.33,-94.17 322.69,-85.03 315.83,-83.68"/>
<text text-anchor="middle" x="331.38" y="-62.2" font-family="Times,serif" font-size="14.00">no</text>
</g>
<!-- node2 -->
<g id="node3" class="node">
<title>node2</title>
<polygon fill="none" stroke="black" points="490.38,-134.5 370.88,-134.5 370.88,-93.5 490.38,-93.5 490.38,-134.5"/>
<text text-anchor="middle" x="430.62" y="-117.2" font-family="Times,serif" font-size="14.00">petal_width &gt; 1.75</text>
<text text-anchor="middle" x="430.62" y="-100.7" font-family="Times,serif" font-size="14.00">gini: 1.10e&#45;1</text>
</g>
<!-- node1&#45;&gt;node2 -->
<g id="edge2" class="edge">
<title>node1&#45;&gt;node2</title>
<path fill="none" stroke="black" d="M353.11,-41.35C367.12,-54.3 385.59,-71.38 400.99,-85.61"/>
<polygon fill="black" stroke="black" points="398.35,-87.94 408.07,-92.16 403.11,-82.8 398.35,-87.94"/>
<text text-anchor="middle" x="399.62" y="-62.2" font-family="Times,serif" font-size="14.00">yes</text>
</g>
<!-- node5 -->
<g id="node4" class="node">
<title>node5</title>
<polygon fill="none" stroke="black" points="407.88,-228 285.38,-228 285.38,-187 407.88,-187 407.88,-228"/>
<text text-anchor="middle" x="346.62" y="-210.7" font-family="Times,serif" font-size="14.00">petal_length &gt; 4.95</text>
<text text-anchor="middle" x="346.62" y="-194.2" font-family="Times,serif" font-size="14.00">gini: 8.56e&#45;2</text>
</g>
<!-- node2&#45;&gt;node5 -->
<g id="edge3" class="edge">
<title>node2&#45;&gt;node5</title>
<path fill="none" stroke="black" d="M412.4,-134.85C400.73,-147.56 385.41,-164.25 372.49,-178.32"/>
<polygon fill="black" stroke="black" points="370.02,-175.84 365.84,-185.57 375.18,-180.57 370.02,-175.84"/>
<text text-anchor="middle" x="403.38" y="-155.7" font-family="Times,serif" font-size="14.00">no</text>
</g>
<!-- node4 -->
<g id="node13" class="node">
<title>node4</title>
<polygon fill="none" stroke="black" points="592.88,-228 470.38,-228 470.38,-187 592.88,-187 592.88,-228"/>
<text text-anchor="middle" x="531.62" y="-210.7" font-family="Times,serif" font-size="14.00">petal_length &gt; 4.85</text>
<text text-anchor="middle" x="531.62" y="-194.2" font-family="Times,serif" font-size="14.00">gini: 2.90e&#45;2</text>
</g>
<!-- node2&#45;&gt;node4 -->
<g id="edge12" class="edge">
<title>node2&#45;&gt;node4</title>
<path fill="none" stroke="black" d="M452.54,-134.85C466.83,-147.8 485.68,-164.88 501.4,-179.11"/>
<polygon fill="black" stroke="black" points="498.87,-181.55 508.63,-185.67 503.57,-176.36 498.87,-181.55"/>
<text text-anchor="middle" x="499.62" y="-155.7" font-family="Times,serif" font-size="14.00">yes</text>
</g>
<!-- node11 -->
<g id="node5" class="node">
<title>node11</title>
<polygon fill="none" stroke="black" points="224.38,-321.5 104.88,-321.5 104.88,-280.5 224.38,-280.5 224.38,-321.5"/>
<text text-anchor="middle" x="164.62" y="-304.2" font-family="Times,serif" font-size="14.00">petal_width &gt; 1.65</text>
<text text-anchor="middle" x="164.62" y="-287.7" font-family="Times,serif" font-size="14.00">gini: 0.00e0</text>
</g>
<!-- node5&#45;&gt;node11 -->
<g id="edge4" class="edge">
<title>node5&#45;&gt;node11</title>
<path fill="none" stroke="black" d="M307.13,-228.35C279.92,-242.04 243.54,-260.33 214.35,-275"/>
<polygon fill="black" stroke="black" points="213.07,-271.73 205.71,-279.35 216.21,-277.98 213.07,-271.73"/>
<text text-anchor="middle" x="279.38" y="-249.2" font-family="Times,serif" font-size="14.00">no</text>
</g>
<!-- node10 -->
<g id="node8" class="node">
<title>node10</title>
<polygon fill="none" stroke="black" points="406.38,-321.5 286.88,-321.5 286.88,-280.5 406.38,-280.5 406.38,-321.5"/>
<text text-anchor="middle" x="346.62" y="-304.2" font-family="Times,serif" font-size="14.00">petal_width &gt; 1.55</text>
<text text-anchor="middle" x="346.62" y="-287.7" font-family="Times,serif" font-size="14.00">gini: 2.22e&#45;1</text>
</g>
<!-- node5&#45;&gt;node10 -->
<g id="edge7" class="edge">
<title>node5&#45;&gt;node10</title>
<path fill="none" stroke="black" d="M346.62,-228.35C346.62,-240.22 346.62,-255.56 346.62,-269"/>
<polygon fill="black" stroke="black" points="343.13,-268.67 346.63,-278.67 350.13,-268.67 343.13,-268.67"/>
<text text-anchor="middle" x="355.62" y="-249.2" font-family="Times,serif" font-size="14.00">yes</text>
</g>
<!-- node23 -->
<g id="node6" class="node">
<title>node23</title>
<path fill="green" stroke="black" d="M87.25,-412.5C87.25,-412.5 12,-412.5 12,-412.5 6,-412.5 0,-406.5 0,-400.5 0,-400.5 0,-388.5 0,-388.5 0,-382.5 6,-376.5 12,-376.5 12,-376.5 87.25,-376.5 87.25,-376.5 93.25,-376.5 99.25,-382.5 99.25,-388.5 99.25,-388.5 99.25,-400.5 99.25,-400.5 99.25,-406.5 93.25,-412.5 87.25,-412.5"/>
<text text-anchor="middle" x="49.62" y="-389.45" font-family="Times,serif" font-size="14.00">Versicolor 1.00</text>
</g>
<!-- node11&#45;&gt;node23 -->
<g id="edge5" class="edge">
<title>node11&#45;&gt;node23</title>
<path fill="none" stroke="black" d="M139.67,-321.85C122.27,-335.7 98.93,-354.27 80.37,-369.04"/>
<polygon fill="black" stroke="black" points="78.26,-366.24 72.61,-375.21 82.62,-371.72 78.26,-366.24"/>
<text text-anchor="middle" x="124.38" y="-342.7" font-family="Times,serif" font-size="14.00">no</text>
</g>
<!-- node22 -->
<g id="node7" class="node">
<title>node22</title>
<path fill="green" stroke="black" d="M200,-412.5C200,-412.5 129.25,-412.5 129.25,-412.5 123.25,-412.5 117.25,-406.5 117.25,-400.5 117.25,-400.5 117.25,-388.5 117.25,-388.5 117.25,-382.5 123.25,-376.5 129.25,-376.5 129.25,-376.5 200,-376.5 200,-376.5 206,-376.5 212,-382.5 212,-388.5 212,-388.5 212,-400.5 212,-400.5 212,-406.5 206,-412.5 200,-412.5"/>
<text text-anchor="middle" x="164.62" y="-389.45" font-family="Times,serif" font-size="14.00">Virginica 1.00</text>
</g>
<!-- node11&#45;&gt;node22 -->
<g id="edge6" class="edge">
<title>node11&#45;&gt;node22</title>
<path fill="none" stroke="black" d="M164.62,-321.85C164.62,-334.37 164.62,-350.75 164.62,-364.69"/>
<polygon fill="black" stroke="black" points="161.13,-364.64 164.63,-374.64 168.13,-364.64 161.13,-364.64"/>
<text text-anchor="middle" x="173.62" y="-342.7" font-family="Times,serif" font-size="14.00">yes</text>
</g>
<!-- node21 -->
<g id="node9" class="node">
<title>node21</title>
<path fill="green" stroke="black" d="M313,-412.5C313,-412.5 242.25,-412.5 242.25,-412.5 236.25,-412.5 230.25,-406.5 230.25,-400.5 230.25,-400.5 230.25,-388.5 230.25,-388.5 230.25,-382.5 236.25,-376.5 242.25,-376.5 242.25,-376.5 313,-376.5 313,-376.5 319,-376.5 325,-382.5 325,-388.5 325,-388.5 325,-400.5 325,-400.5 325,-406.5 319,-412.5 313,-412.5"/>
<text text-anchor="middle" x="277.62" y="-389.45" font-family="Times,serif" font-size="14.00">Virginica 1.00</text>
</g>
<!-- node10&#45;&gt;node21 -->
<g id="edge8" class="edge">
<title>node10&#45;&gt;node21</title>
<path fill="none" stroke="black" d="M331.65,-321.85C321.64,-335.13 308.35,-352.75 297.46,-367.2"/>
<polygon fill="black" stroke="black" points="294.85,-364.85 291.62,-374.94 300.43,-369.07 294.85,-364.85"/>
<text text-anchor="middle" x="325.38" y="-342.7" font-family="Times,serif" font-size="14.00">no</text>
</g>
<!-- node20 -->
<g id="node10" class="node">
<title>node20</title>
<polygon fill="none" stroke="black" points="465.88,-415 343.38,-415 343.38,-374 465.88,-374 465.88,-415"/>
<text text-anchor="middle" x="404.62" y="-397.7" font-family="Times,serif" font-size="14.00">petal_length &gt; 5.45</text>
<text text-anchor="middle" x="404.62" y="-381.2" font-family="Times,serif" font-size="14.00">gini: 0.00e0</text>
</g>
<!-- node10&#45;&gt;node20 -->
<g id="edge9" class="edge">
<title>node10&#45;&gt;node20</title>
<path fill="none" stroke="black" d="M359.21,-321.85C367.04,-334.2 377.25,-350.31 386,-364.12"/>
<polygon fill="black" stroke="black" points="382.94,-365.83 391.25,-372.41 388.86,-362.09 382.94,-365.83"/>
<text text-anchor="middle" x="390.62" y="-342.7" font-family="Times,serif" font-size="14.00">yes</text>
</g>
<!-- node41 -->
<g id="node11" class="node">
<title>node41</title>
<path fill="green" stroke="black" d="M384.25,-503.5C384.25,-503.5 309,-503.5 309,-503.5 303,-503.5 297,-497.5 297,-491.5 297,-491.5 297,-479.5 297,-479.5 297,-473.5 303,-467.5 309,-467.5 309,-467.5 384.25,-467.5 384.25,-467.5 390.25,-467.5 396.25,-473.5 396.25,-479.5 396.25,-479.5 396.25,-491.5 396.25,-491.5 396.25,-497.5 390.25,-503.5 384.25,-503.5"/>
<text text-anchor="middle" x="346.62" y="-480.45" font-family="Times,serif" font-size="14.00">Versicolor 1.00</text>
</g>
<!-- node20&#45;&gt;node41 -->
<g id="edge10" class="edge">
<title>node20&#45;&gt;node41</title>
<path fill="none" stroke="black" d="M391.75,-415.25C383.59,-427.78 372.92,-444.14 364.01,-457.82"/>
<polygon fill="black" stroke="black" points="361.25,-455.65 358.72,-465.94 367.11,-459.47 361.25,-455.65"/>
<text text-anchor="middle" x="386.38" y="-436.2" font-family="Times,serif" font-size="14.00">no</text>
</g>
<!-- node40 -->
<g id="node12" class="node">
<title>node40</title>
<path fill="green" stroke="black" d="M497,-503.5C497,-503.5 426.25,-503.5 426.25,-503.5 420.25,-503.5 414.25,-497.5 414.25,-491.5 414.25,-491.5 414.25,-479.5 414.25,-479.5 414.25,-473.5 420.25,-467.5 426.25,-467.5 426.25,-467.5 497,-467.5 497,-467.5 503,-467.5 509,-473.5 509,-479.5 509,-479.5 509,-491.5 509,-491.5 509,-497.5 503,-503.5 497,-503.5"/>
<text text-anchor="middle" x="461.62" y="-480.45" font-family="Times,serif" font-size="14.00">Virginica 1.00</text>
</g>
<!-- node20&#45;&gt;node40 -->
<g id="edge11" class="edge">
<title>node20&#45;&gt;node40</title>
<path fill="none" stroke="black" d="M417.28,-415.25C425.3,-427.78 435.78,-444.14 444.54,-457.82"/>
<polygon fill="black" stroke="black" points="441.39,-459.4 449.73,-465.93 447.29,-455.62 441.39,-459.4"/>
<text text-anchor="middle" x="447.62" y="-436.2" font-family="Times,serif" font-size="14.00">yes</text>
</g>
<!-- node9 -->
<g id="node14" class="node">
<title>node9</title>
<polygon fill="none" stroke="black" points="592.12,-321.5 471.12,-321.5 471.12,-280.5 592.12,-280.5 592.12,-321.5"/>
<text text-anchor="middle" x="531.62" y="-304.2" font-family="Times,serif" font-size="14.00">sepal_width &gt; 3.10</text>
<text text-anchor="middle" x="531.62" y="-287.7" font-family="Times,serif" font-size="14.00">gini: 0.00e0</text>
</g>
<!-- node4&#45;&gt;node9 -->
<g id="edge13" class="edge">
<title>node4&#45;&gt;node9</title>
<path fill="none" stroke="black" d="M531.62,-228.35C531.62,-240.22 531.62,-255.56 531.62,-269"/>
<polygon fill="black" stroke="black" points="528.13,-268.67 531.63,-278.67 535.13,-268.67 528.13,-268.67"/>
<text text-anchor="middle" x="538.38" y="-249.2" font-family="Times,serif" font-size="14.00">no</text>
</g>
<!-- node8 -->
<g id="node17" class="node">
<title>node8</title>
<path fill="green" stroke="black" d="M693,-319C693,-319 622.25,-319 622.25,-319 616.25,-319 610.25,-313 610.25,-307 610.25,-307 610.25,-295 610.25,-295 610.25,-289 616.25,-283 622.25,-283 622.25,-283 693,-283 693,-283 699,-283 705,-289 705,-295 705,-295 705,-307 705,-307 705,-313 699,-319 693,-319"/>
<text text-anchor="middle" x="657.62" y="-295.95" font-family="Times,serif" font-size="14.00">Virginica 1.00</text>
</g>
<!-- node4&#45;&gt;node8 -->
<g id="edge16" class="edge">
<title>node4&#45;&gt;node8</title>
<path fill="none" stroke="black" d="M558.97,-228.35C578.21,-242.33 604.07,-261.11 624.49,-275.94"/>
<polygon fill="black" stroke="black" points="622.36,-278.72 632.51,-281.76 626.48,-273.05 622.36,-278.72"/>
<text text-anchor="middle" x="614.62" y="-249.2" font-family="Times,serif" font-size="14.00">yes</text>
</g>
<!-- node19 -->
<g id="node15" class="node">
<title>node19</title>
<path fill="green" stroke="black" d="M567,-412.5C567,-412.5 496.25,-412.5 496.25,-412.5 490.25,-412.5 484.25,-406.5 484.25,-400.5 484.25,-400.5 484.25,-388.5 484.25,-388.5 484.25,-382.5 490.25,-376.5 496.25,-376.5 496.25,-376.5 567,-376.5 567,-376.5 573,-376.5 579,-382.5 579,-388.5 579,-388.5 579,-400.5 579,-400.5 579,-406.5 573,-412.5 567,-412.5"/>
<text text-anchor="middle" x="531.62" y="-389.45" font-family="Times,serif" font-size="14.00">Virginica 1.00</text>
</g>
<!-- node9&#45;&gt;node19 -->
<g id="edge14" class="edge">
<title>node9&#45;&gt;node19</title>
<path fill="none" stroke="black" d="M531.62,-321.85C531.62,-334.37 531.62,-350.75 531.62,-364.69"/>
<polygon fill="black" stroke="black" points="528.13,-364.64 531.63,-374.64 535.13,-364.64 528.13,-364.64"/>
<text text-anchor="middle" x="538.38" y="-342.7" font-family="Times,serif" font-size="14.00">no</text>
</g>
<!-- node18 -->
<g id="node16" class="node">
<title>node18</title>
<path fill="green" stroke="black" d="M684.25,-412.5C684.25,-412.5 609,-412.5 609,-412.5 603,-412.5 597,-406.5 597,-400.5 597,-400.5 597,-388.5 597,-388.5 597,-382.5 603,-376.5 609,-376.5 609,-376.5 684.25,-376.5 684.25,-376.5 690.25,-376.5 696.25,-382.5 696.25,-388.5 696.25,-388.5 696.25,-400.5 696.25,-400.5 696.25,-406.5 690.25,-412.5 684.25,-412.5"/>
<text text-anchor="middle" x="646.62" y="-389.45" font-family="Times,serif" font-size="14.00">Versicolor 1.00</text>
</g>
<!-- node9&#45;&gt;node18 -->
<g id="edge15" class="edge">
<title>node9&#45;&gt;node18</title>
<path fill="none" stroke="black" d="M556.58,-321.85C573.98,-335.7 597.32,-354.27 615.88,-369.04"/>
<polygon fill="black" stroke="black" points="613.63,-371.72 623.64,-375.21 617.99,-366.24 613.63,-371.72"/>
<text text-anchor="middle" x="607.62" y="-342.7" font-family="Times,serif" font-size="14.00">yes</text>
</g>
</g>
</svg>
