<?xml version="1.0" encoding="UTF-8" standalone="no"?>
<!DOCTYPE svg PUBLIC "-//W3C//DTD SVG 1.1//EN"
 "http://www.w3.org/Graphics/SVG/1.1/DTD/svg11.dtd">
<!-- Generated by graphviz version 11.0.0 (0)
 -->
<!-- Pages: 1 -->
<svg width="453pt" height="310pt"
 viewBox="0.00 0.00 453.00 309.50" xmlns="http://www.w3.org/2000/svg" xmlns:xlink="http://www.w3.org/1999/xlink">
<g id="graph0" class="graph" transform="scale(1 1) rotate(0) translate(4 305.5)">
<polygon fill="white" stroke="none" points="-4,4 -4,-305.5 449,-305.5 449,4 -4,4"/>
<!-- node1 -->
<g id="node1" class="node">
<title>node1</title>
<polygon fill="none" stroke="black" points="196.88,-36 74.38,-36 74.38,0 196.88,0 196.88,-36"/>
<text text-anchor="middle" x="135.62" y="-12.95" font-family="Times,serif" font-size="14.00">petal_length &gt; 2.45</text>
</g>
<!-- node3 -->
<g id="node2" class="node">
<title>node3</title>
<path fill="green" stroke="black" d="M145.12,-124.5C145.12,-124.5 90.12,-124.5 90.12,-124.5 84.12,-124.5 78.12,-118.5 78.12,-112.5 78.12,-112.5 78.12,-100.5 78.12,-100.5 78.12,-94.5 84.12,-88.5 90.12,-88.5 90.12,-88.5 145.12,-88.5 145.12,-88.5 151.12,-88.5 157.12,-94.5 157.12,-100.5 157.12,-100.5 157.12,-112.5 157.12,-112.5 157.12,-118.5 151.12,-124.5 145.12,-124.5"/>
<text text-anchor="middle" x="117.62" y="-101.45" font-family="Times,serif" font-size="14.00">Setosa 1.00</text>
</g>
<!-- node1&#45;&gt;node3 -->
<g id="edge1" class="edge">
<title>node1&#45;&gt;node3</title>
<path fill="none" stroke="black" d="M132.07,-36.09C129.64,-47.74 126.37,-63.45 123.56,-76.98"/>
<polygon fill="black" stroke="black" points="120.15,-76.16 121.54,-86.67 127.01,-77.59 120.15,-76.16"/>
<text text-anchor="middle" x="135.38" y="-57.2" font-family="Times,serif" font-size="14.00">no</text>
</g>
<!-- node2 -->
<g id="node3" class="node">
<title>node2</title>
<polygon fill="none" stroke="black" points="294.38,-124.5 174.88,-124.5 174.88,-88.5 294.38,-88.5 294.38,-124.5"/>
<text text-anchor="middle" x="234.62" y="-101.45" font-family="Times,serif" font-size="14.00">petal_width &gt; 1.75</text>
</g>
<!-- node1&#45;&gt;node2 -->
<g id="edge2" class="edge">
<title>node1&#45;&gt;node2</title>
<path fill="none" stroke="black" d="M155.18,-36.09C169.73,-48.8 189.81,-66.34 206.14,-80.61"/>
<polygon fill="black" stroke="black" points="203.79,-83.21 213.63,-87.15 208.4,-77.94 203.79,-83.21"/>
<text text-anchor="middle" x="203.62" y="-57.2" font-family="Times,serif" font-size="14.00">yes</text>
</g>
<!-- node5 -->
<g id="node4" class="node">
<title>node5</title>
<polygon fill="none" stroke="black" points="211.88,-213 89.38,-213 89.38,-177 211.88,-177 211.88,-213"/>
<text text-anchor="middle" x="150.62" y="-189.95" font-family="Times,serif" font-size="14.00">petal_length &gt; 4.95</text>
</g>
<!-- node2&#45;&gt;node5 -->
<g id="edge3" class="edge">
<title>node2&#45;&gt;node5</title>
<path fill="none" stroke="black" d="M218.03,-124.59C205.8,-137.18 188.96,-154.52 175.18,-168.71"/>
<polygon fill="black" stroke="black" points="172.98,-165.95 168.53,-175.56 178.01,-170.83 172.98,-165.95"/>
<text text-anchor="middle" x="207.38" y="-145.7" font-family="Times,serif" font-size="14.00">no</text>
</g>
<!-- node4 -->
<g id="node7" class="node">
<title>node4</title>
<polygon fill="none" stroke="black" points="352.88,-213 230.38,-213 230.38,-177 352.88,-177 352.88,-213"/>
<text text-anchor="middle" x="291.62" y="-189.95" font-family="Times,serif" font-size="14.00">petal_length &gt; 4.85</text>
</g>
<!-- node2&#45;&gt;node4 -->
<g id="edge6" class="edge">
<title>node2&#45;&gt;node4</title>
<path fill="none" stroke="black" d="M245.89,-124.59C253.88,-136.71 264.76,-153.23 273.91,-167.11"/>
<polygon fill="black" stroke="black" points="270.93,-168.96 279.36,-175.39 276.78,-165.11 270.93,-168.96"/>
<text text-anchor="middle" x="277.62" y="-145.7" font-family="Times,serif" font-size="14.00">yes</text>
</g>
<!-- node11 -->
<g id="node5" class="node">
<title>node11</title>
<path fill="green" stroke="black" d="M87.25,-301.5C87.25,-301.5 12,-301.5 12,-301.5 6,-301.5 0,-295.5 0,-289.5 0,-289.5 0,-277.5 0,-277.5 0,-271.5 6,-265.5 12,-265.5 12,-265.5 87.25,-265.5 87.25,-265.5 93.25,-265.5 99.25,-271.5 99.25,-277.5 99.25,-277.5 99.25,-289.5 99.25,-289.5 99.25,-295.5 93.25,-301.5 87.25,-301.5"/>
<text text-anchor="middle" x="49.62" y="-278.45" font-family="Times,serif" font-size="14.00">Versicolor 0.98</text>
</g>
<!-- node5&#45;&gt;node11 -->
<g id="edge4" class="edge">
<title>node5&#45;&gt;node11</title>
<path fill="none" stroke="black" d="M130.67,-213.09C115.69,-225.92 94.97,-243.67 78.22,-258.01"/>
<polygon fill="black" stroke="black" points="76.35,-255 71.03,-264.17 80.91,-260.32 76.35,-255"/>
<text text-anchor="middle" x="116.38" y="-234.2" font-family="Times,serif" font-size="14.00">no</text>
</g>
<!-- node10 -->
<g id="node6" class="node">
<title>node10</title>
<path fill="green" stroke="black" d="M200,-301.5C200,-301.5 129.25,-301.5 129.25,-301.5 123.25,-301.5 117.25,-295.5 117.25,-289.5 117.25,-289.5 117.25,-277.5 117.25,-277.5 117.25,-271.5 123.25,-265.5 129.25,-265.5 129.25,-265.5 200,-265.5 200,-265.5 206,-265.5 212,-271.5 212,-277.5 212,-277.5 212,-289.5 212,-289.5 212,-295.5 206,-301.5 200,-301.5"/>
<text text-anchor="middle" x="164.62" y="-278.45" font-family="Times,serif" font-size="14.00">Virginica 0.67</text>
</g>
<!-- node5&#45;&gt;node10 -->
<g id="edge5" class="edge">
<title>node5&#45;&gt;node10</title>
<path fill="none" stroke="black" d="M153.39,-213.09C155.28,-224.74 157.82,-240.45 160.01,-253.98"/>
<polygon fill="black" stroke="black" points="156.52,-254.34 161.58,-263.66 163.43,-253.22 156.52,-254.34"/>
<text text-anchor="middle" x="168.62" y="-234.2" font-family="Times,serif" font-size="14.00">yes</text>
</g>
<!-- node9 -->
<g id="node8" class="node">
<title>node9</title>
<path fill="green" stroke="black" d="M320,-301.5C320,-301.5 249.25,-301.5 249.25,-301.5 243.25,-301.5 237.25,-295.5 237.25,-289.5 237.25,-289.5 237.25,-277.5 237.25,-277.5 237.25,-271.5 243.25,-265.5 249.25,-265.5 249.25,-265.5 320,-265.5 320,-265.5 326,-265.5 332,-271.5 332,-277.5 332,-277.5 332,-289.5 332,-289.5 332,-295.5 326,-301.5 320,-301.5"/>
<text text-anchor="middle" x="284.62" y="-278.45" font-family="Times,serif" font-size="14.00">Virginica 0.67</text>
</g>
<!-- node4&#45;&gt;node9 -->
<g id="edge7" class="edge">
<title>node4&#45;&gt;node9</title>
<path fill="none" stroke="black" d="M290.24,-213.09C289.3,-224.74 288.03,-240.45 286.93,-253.98"/>
<polygon fill="black" stroke="black" points="283.47,-253.39 286.15,-263.64 290.45,-253.96 283.47,-253.39"/>
<text text-anchor="middle" x="295.38" y="-234.2" font-family="Times,serif" font-size="14.00">no</text>
</g>
<!-- node8 -->
<g id="node9" class="node">
<title>node8</title>
<path fill="green" stroke="black" d="M433,-301.5C433,-301.5 362.25,-301.5 362.25,-301.5 356.25,-301.5 350.25,-295.5 350.25,-289.5 350.25,-289.5 350.25,-277.5 350.25,-277.5 350.25,-271.5 356.25,-265.5 362.25,-265.5 362.25,-265.5 433,-265.5 433,-265.5 439,-265.5 445,-271.5 445,-277.5 445,-277.5 445,-289.5 445,-289.5 445,-295.5 439,-301.5 433,-301.5"/>
<text text-anchor="middle" x="397.62" y="-278.45" font-family="Times,serif" font-size="14.00">Virginica 1.00</text>
</g>
<!-- node4&#45;&gt;node8 -->
<g id="edge8" class="edge">
<title>node4&#45;&gt;node8</title>
<path fill="none" stroke="black" d="M312.82,-213.3C328.56,-226.14 350.25,-243.84 367.75,-258.12"/>
<polygon fill="black" stroke="black" points="365.33,-260.67 375.29,-264.28 369.76,-255.24 365.33,-260.67"/>
<text text-anchor="middle" x="362.62" y="-234.2" font-family="Times,serif" font-size="14.00">yes</text>
</g>
</g>
</svg>
