<?xml version="1.0" encoding="UTF-8" standalone="no"?>
<!DOCTYPE svg PUBLIC "-//W3C//DTD SVG 1.1//EN"
 "http://www.w3.org/Graphics/SVG/1.1/DTD/svg11.dtd">
<!-- Generated by graphviz version 11.0.0 (0)
 -->
<!-- Pages: 1 -->
<svg width="453pt" height="325pt"
 viewBox="0.00 0.00 453.00 324.50" xmlns="http://www.w3.org/2000/svg" xmlns:xlink="http://www.w3.org/1999/xlink">
<g id="graph0" class="graph" transform="scale(1 1) rotate(0) translate(4 320.5)">
<polygon fill="white" stroke="none" points="-4,4 -4,-320.5 449,-320.5 449,4 -4,4"/>
<!-- node1 -->
<g id="node1" class="node">
<title>node1</title>
<polygon fill="none" stroke="black" points="196.88,-41 74.38,-41 74.38,0 196.88,0 196.88,-41"/>
<text text-anchor="middle" x="135.62" y="-23.7" font-family="Times,serif" font-size="14.00">petal_length &gt; 2.45</text>
<text text-anchor="middle" x="135.62" y="-7.2" font-family="Times,serif" font-size="14.00">gini: 3.33e&#45;1</text>
</g>
<!-- node3 -->
<g id="node2" class="node">
<title>node3</title>
<path fill="green" stroke="black" d="M145.12,-132C145.12,-132 90.12,-132 90.12,-132 84.12,-132 78.12,-126 78.12,-120 78.12,-120 78.12,-108 78.12,-108 78.12,-102 84.12,-96 90.12,-96 90.12,-96 145.12,-96 145.12,-96 151.12,-96 157.12,-102 157.12,-108 157.12,-108 157.12,-120 157.12,-120 157.12,-126 151.12,-132 145.12,-132"/>
<text text-anchor="middle" x="117.62" y="-108.95" font-family="Times,serif" font-size="14.00">Setosa 1.00</text>
</g>
<!-- node1&#45;&gt;node3 -->
<g id="edge1" class="edge">
<title>node1&#45;&gt;node3</title>
<path fill="none" stroke="black" d="M131.72,-41.35C129.23,-54 125.97,-70.59 123.21,-84.61"/>
<polygon fill="black" stroke="black" points="119.83,-83.68 121.33,-94.17 126.69,-85.03 119.83,-83.68"/>
<text text-anchor="middle" x="135.38" y="-62.2" font-family="Times,serif" font-size="14.00">no</text>
</g>
<!-- node2 -->
<g id="node3" class="node">
<title>node2</title>
<polygon fill="none" stroke="black" points="294.38,-134.5 174.88,-134.5 174.88,-93.5 294.38,-93.5 294.38,-134.5"/>
<text text-anchor="middle" x="234.62" y="-117.2" font-family="Times,serif" font-size="14.00">petal_width &gt; 1.75</text>
<text text-anchor="middle" x="234.62" y="-100.7" font-family="Times,serif" font-size="14.00">gini: 1.10e&#45;1</text>
</g>
<!-- node1&#45;&gt;node2 -->
<g id="edge2" class="edge">
<title>node1&#45;&gt;node2</title>
<path fill="none" stroke="black" d="M157.11,-41.35C171.12,-54.3 189.59,-71.38 204.99,-85.61"/>
<polygon fill="black" stroke="black" points="202.35,-87.94 212.07,-92.16 207.11,-82.8 202.35,-87.94"/>
<text text-anchor="middle" x="203.62" y="-62.2" font-family="Times,serif" font-size="14.00">yes</text>
</g>
<!-- node5 -->
<g id="node4" class="node">
<title>node5</title>
<polygon fill="none" stroke="black" points="211.88,-228 89.38,-228 89.38,-187 211.88,-187 211.88,-228"/>
<text text-anchor="middle" x="150.62" y="-210.7" font-family="Times,serif" font-size="14.00">petal_length &gt; 4.95</text>
<text text-anchor="middle" x="150.62" y="-194.2" font-family="Times,serif" font-size="14.00">gini: 8.56e&#45;2</text>
</g>
<!-- node2&#45;&gt;node5 -->
<g id="edge3" class="edge">
<title>node2&#45;&gt;node5</title>
<path fill="none" stroke="black" d="M216.4,-134.85C204.73,-147.56 189.41,-164.25 176.49,-178.32"/>
<polygon fill="black" stroke="black" points="174.02,-175.84 169.84,-185.57 179.18,-180.57 174.02,-175.84"/>
<text text-anchor="middle" x="207.38" y="-155.7" font-family="Times,serif" font-size="14.00">no</text>
</g>
<!-- node4 -->
<g id="node7" class="node">
<title>node4</title>
<polygon fill="none" stroke="black" points="352.88,-228 230.38,-228 230.38,-187 352.88,-187 352.88,-228"/>
<text text-anchor="middle" x="291.62" y="-210.7" font-family="Times,serif" font-size="14.00">petal_length &gt; 4.85</text>
<text text-anchor="middle" x="291.62" y="-194.2" font-family="Times,serif" font-size="14.00">gini: 2.90e&#45;2</text>
</g>
<!-- node2&#45;&gt;node4 -->
<g id="edge6" class="edge">
<title>node2&#45;&gt;node4</title>
<path fill="none" stroke="black" d="M246.99,-134.85C254.69,-147.2 264.72,-163.31 273.32,-177.12"/>
<polygon fill="black" stroke="black" points="270.22,-178.76 278.48,-185.4 276.16,-175.06 270.22,-178.76"/>
<text text-anchor="middle" x="277.62" y="-155.7" font-family="Times,serif" font-size="14.00">yes</text>
</g>
<!-- node11 -->
<g id="node5" class="node">
<title>node11</title>
<path fill="green" stroke="black" d="M87.25,-316.5C87.25,-316.5 12,-316.5 12,-316.5 6,-316.5 0,-310.5 0,-304.5 0,-304.5 0,-292.5 0,-292.5 0,-286.5 6,-280.5 12,-280.5 12,-280.5 87.25,-280.5 87.25,-280.5 93.25,-280.5 99.25,-286.5 99.25,-292.5 99.25,-292.5 99.25,-304.5 99.25,-304.5 99.25,-310.5 93.25,-316.5 87.25,-316.5"/>
<text text-anchor="middle" x="49.62" y="-293.45" font-family="Times,serif" font-size="14.00">Versicolor 0.98</text>
</g>
<!-- node5&#45;&gt;node11 -->
<g id="edge4" class="edge">
<title>node5&#45;&gt;node11</title>
<path fill="none" stroke="black" d="M127.96,-228.47C113.14,-241.53 93.67,-258.69 77.85,-272.63"/>
<polygon fill="black" stroke="black" points="75.81,-269.76 70.62,-279 80.44,-275.01 75.81,-269.76"/>
<text text-anchor="middle" x="113.38" y="-249.2" font-family="Times,serif" font-size="14.00">no</text>
</g>
<!-- node10 -->
<g id="node6" class="node">
<title>node10</title>
<path fill="green" stroke="black" d="M200,-316.5C200,-316.5 129.25,-316.5 129.25,-316.5 123.25,-316.5 117.25,-310.5 117.25,-304.5 117.25,-304.5 117.25,-292.5 117.25,-292.5 117.25,-286.5 123.25,-280.5 129.25,-280.5 129.25,-280.5 200,-280.5 200,-280.5 206,-280.5 212,-286.5 212,-292.5 212,-292.5 212,-304.5 212,-304.5 212,-310.5 206,-316.5 200,-316.5"/>
<text text-anchor="middle" x="164.62" y="-293.45" font-family="Times,serif" font-size="14.00">Virginica 0.67</text>
</g>
<!-- node5&#45;&gt;node10 -->
<g id="edge5" class="edge">
<title>node5&#45;&gt;node10</title>
<path fill="none" stroke="black" d="M153.73,-228.25C155.63,-240.29 158.08,-255.88 160.18,-269.21"/>
<polygon fill="black" stroke="black" points="156.66,-269.38 161.67,-278.71 163.57,-268.29 156.66,-269.38"/>
<text text-anchor="middle" x="168.62" y="-249.2" font-family="Times,serif" font-size="14.00">yes</text>
</g>
<!-- node9 -->
<g id="node8" class="node">
<title>node9</title>
<path fill="green" stroke="black" d="M320,-316.5C320,-316.5 249.25,-316.5 249.25,-316.5 243.25,-316.5 237.25,-310.5 237.25,-304.5 237.25,-304.5 237.25,-292.5 237.25,-292.5 237.25,-286.5 243.25,-280.5 249.25,-280.5 249.25,-280.5 320,-280.5 320,-280.5 326,-280.5 332,-286.5 332,-292.5 332,-292.5 332,-304.5 332,-304.5 332,-310.5 326,-316.5 320,-316.5"/>
<text text-anchor="middle" x="284.62" y="-293.45" font-family="Times,serif" font-size="14.00">Virginica 0.67</text>
</g>
<!-- node4&#45;&gt;node9 -->
<g id="edge7" class="edge">
<title>node4&#45;&gt;node9</title>
<path fill="none" stroke="black" d="M290.07,-228.25C289.13,-240.17 287.92,-255.56 286.88,-268.81"/>
<polygon fill="black" stroke="black" points="283.4,-268.46 286.1,-278.7 290.38,-269 283.4,-268.46"/>
<text text-anchor="middle" x="294.38" y="-249.2" font-family="Times,serif" font-size="14.00">no</text>
</g>
<!-- node8 -->
<g id="node9" class="node">
<title>node8</title>
<path fill="green" stroke="black" d="M433,-316.5C433,-316.5 362.25,-316.5 362.25,-316.5 356.25,-316.5 350.25,-310.5 350.25,-304.5 350.25,-304.5 350.25,-292.5 350.25,-292.5 350.25,-286.5 356.25,-280.5 362.25,-280.5 362.25,-280.5 433,-280.5 433,-280.5 439,-280.5 445,-286.5 445,-292.5 445,-292.5 445,-304.5 445,-304.5 445,-310.5 439,-316.5 433,-316.5"/>
<text text-anchor="middle" x="397.62" y="-293.45" font-family="Times,serif" font-size="14.00">Virginica 1.00</text>
</g>
<!-- node4&#45;&gt;node8 -->
<g id="edge8" class="edge">
<title>node4&#45;&gt;node8</title>
<path fill="none" stroke="black" d="M315.41,-228.47C330.97,-241.53 351.4,-258.69 368.01,-272.63"/>
<polygon fill="black" stroke="black" points="365.71,-275.28 375.62,-279.03 370.22,-269.92 365.71,-275.28"/>
<text text-anchor="middle" x="362.62" y="-249.2" font-family="Times,serif" font-size="14.00">yes</text>
</g>
</g>
</svg>
