<?xml version="1.0" encoding="UTF-8" standalone="no"?>
<!DOCTYPE svg PUBLIC "-//W3C//DTD SVG 1.1//EN"
 "http://www.w3.org/Graphics/SVG/1.1/DTD/svg11.dtd">
<!-- Generated by graphviz version 11.0.0 (0)
 -->
<!-- Pages: 1 -->
<svg width="717pt" height="487pt"
 viewBox="0.00 0.00 717.00 486.50" xmlns="http://www.w3.org/2000/svg" xmlns:xlink="http://www.w3.org/1999/xlink">
<g id="graph0" class="graph" transform="scale(1 1) rotate(0) translate(4 482.5)">
<polygon fill="white" stroke="none" points="-4,4 -4,-482.5 713,-482.5 713,4 -4,4"/>
<!-- node1 -->
<g id="node1" class="node">
<title>node1</title>
<polygon fill="none" stroke="black" points="394.88,-36 272.38,-36 272.38,0 394.88,0 394.88,-36"/>
<text text-anchor="middle" x="333.62" y="-12.95" font-family="Times,serif" font-size="14.00">petal_length &gt; 2.45</text>
</g>
<!-- node3 -->
<g id="node2" class="node">
<title>node3</title>
<path fill="green" stroke="black" d="M343.12,-124.5C343.12,-124.5 288.12,-124.5 288.12,-124.5 282.12,-124.5 276.12,-118.5 276.12,-112.5 276.12,-112.5 276.12,-100.5 276.12,-100.5 276.12,-94.5 282.12,-88.5 288.12,-88.5 288.12,-88.5 343.12,-88.5 343.12,-88.5 349.12,-88.5 355.12,-94.5 355.12,-100.5 355.12,-100.5 355.12,-112.5 355.12,-112.5 355.12,-118.5 349.12,-124.5 343.12,-124.5"/>
<text text-anchor="middle" x="315.62" y="-101.45" font-family="Times,serif" font-size="14.00">Setosa 1.00</text>
</g>
<!-- node1&#45;&gt;node3 -->
<g id="edge1" class="edge">
<title>node1&#45;&gt;node3</title>
<path fill="none" stroke="black" d="M330.07,-36.09C327.64,-47.74 324.37,-63.45 321.56,-76.98"/>
<polygon fill="black" stroke="black" points="318.15,-76.16 319.54,-86.67 325.01,-77.59 318.15,-76.16"/>
<text text-anchor="middle" x="333.38" y="-57.2" font-family="Times,serif" font-size="14.00">no</text>
</g>
<!-- node2 -->
<g id="node3" class="node">
<title>node2</title>
<polygon fill="none" stroke="black" points="492.38,-124.5 372.88,-124.5 372.88,-88.5 492.38,-88.5 492.38,-124.5"/>
<text text-anchor="middle" x="432.62" y="-101.45" font-family="Times,serif" font-size="14.00">petal_width &gt; 1.75</text>
</g>
<!-- node1&#45;&gt;node2 -->
<g id="edge2" class="edge">
<title>node1&#45;&gt;node2</title>
<path fill="none" stroke="black" d="M353.18,-36.09C367.73,-48.8 387.81,-66.34 404.14,-80.61"/>
<polygon fill="black" stroke="black" points="401.79,-83.21 411.63,-87.15 406.4,-77.94 401.79,-83.21"/>
<text text-anchor="middle" x="401.62" y="-57.2" font-family="Times,serif" font-size="14.00">yes</text>
</g>
<!-- node5 -->
<g id="node4" class="node">
<title>node5</title>
<polygon fill="none" stroke="black" points="409.88,-213 287.38,-213 287.38,-177 409.88,-177 409.88,-213"/>
<text text-anchor="middle" x="348.62" y="-189.95" font-family="Times,serif" font-size="14.00">petal_length &gt; 4.95</text>
</g>
<!-- node2&#45;&gt;node5 -->
<g id="edge3" class="edge">
<title>node2&#45;&gt;node5</title>
<path fill="none" stroke="black" d="M416.03,-124.59C403.8,-137.18 386.96,-154.52 373.18,-168.71"/>
<polygon fill="black" stroke="black" points="370.98,-165.95 366.53,-175.56 376.01,-170.83 370.98,-165.95"/>
<text text-anchor="middle" x="405.38" y="-145.7" font-family="Times,serif" font-size="14.00">no</text>
</g>
<!-- node4 -->
<g id="node13" class="node">
<title>node4</title>
<polygon fill="none" stroke="black" points="595.88,-213 473.38,-213 473.38,-177 595.88,-177 595.88,-213"/>
<text text-anchor="middle" x="534.62" y="-189.95" font-family="Times,serif" font-size="14.00">petal_length &gt; 4.85</text>
</g>
<!-- node2&#45;&gt;node4 -->
<g id="edge12" class="edge">
<title>node2&#45;&gt;node4</title>
<path fill="none" stroke="black" d="M452.78,-124.59C467.91,-137.42 488.84,-155.17 505.74,-169.51"/>
<polygon fill="black" stroke="black" points="503.12,-171.87 513.01,-175.67 507.65,-166.53 503.12,-171.87"/>
<text text-anchor="middle" x="502.62" y="-145.7" font-family="Times,serif" font-size="14.00">yes</text>
</g>
<!-- node11 -->
<g id="node5" class="node">
<title>node11</title>
<polygon fill="none" stroke="black" points="224.38,-301.5 104.88,-301.5 104.88,-265.5 224.38,-265.5 224.38,-301.5"/>
<text text-anchor="middle" x="164.62" y="-278.45" font-family="Times,serif" font-size="14.00">petal_width &gt; 1.65</text>
</g>
<!-- node5&#45;&gt;node11 -->
<g id="edge4" class="edge">
<title>node5&#45;&gt;node11</title>
<path fill="none" stroke="black" d="M311.83,-213.3C283.09,-226.81 242.95,-245.68 211.84,-260.3"/>
<polygon fill="black" stroke="black" points="210.6,-257.02 203.04,-264.44 213.58,-263.35 210.6,-257.02"/>
<text text-anchor="middle" x="280.38" y="-234.2" font-family="Times,serif" font-size="14.00">no</text>
</g>
<!-- node10 -->
<g id="node8" class="node">
<title>node10</title>
<polygon fill="none" stroke="black" points="408.38,-301.5 288.88,-301.5 288.88,-265.5 408.38,-265.5 408.38,-301.5"/>
<text text-anchor="middle" x="348.62" y="-278.45" font-family="Times,serif" font-size="14.00">petal_width &gt; 1.55</text>
</g>
<!-- node5&#45;&gt;node10 -->
<g id="edge7" class="edge">
<title>node5&#45;&gt;node10</title>
<path fill="none" stroke="black" d="M348.62,-213.09C348.62,-224.74 348.62,-240.45 348.62,-253.98"/>
<polygon fill="black" stroke="black" points="345.13,-253.64 348.63,-263.64 352.13,-253.64 345.13,-253.64"/>
<text text-anchor="middle" x="357.62" y="-234.2" font-family="Times,serif" font-size="14.00">yes</text>
</g>
<!-- node23 -->
<g id="node6" class="node">
<title>node23</title>
<path fill="green" stroke="black" d="M87.25,-390C87.25,-390 12,-390 12,-390 6,-390 0,-384 0,-378 0,-378 0,-366 0,-366 0,-360 6,-354 12,-354 12,-354 87.25,-354 87.25,-354 93.25,-354 99.25,-360 99.25,-366 99.25,-366 99.25,-378 99.25,-378 99.25,-384 93.25,-390 87.25,-390"/>
<text text-anchor="middle" x="49.62" y="-366.95" font-family="Times,serif" font-size="14.00">Versicolor 1.00</text>
</g>
<!-- node11&#45;&gt;node23 -->
<g id="edge5" class="edge">
<title>node11&#45;&gt;node23</title>
<path fill="none" stroke="black" d="M141.63,-301.8C124.47,-314.7 100.81,-332.5 81.78,-346.82"/>
<polygon fill="black" stroke="black" points="79.68,-344.02 73.79,-352.82 83.89,-349.61 79.68,-344.02"/>
<text text-anchor="middle" x="124.38" y="-322.7" font-family="Times,serif" font-size="14.00">no</text>
</g>
<!-- node22 -->
<g id="node7" class="node">
<title>node22</title>
<path fill="green" stroke="black" d="M200,-390C200,-390 129.25,-390 129.25,-390 123.25,-390 117.25,-384 117.25,-378 117.25,-378 117.25,-366 117.25,-366 117.25,-360 123.25,-354 129.25,-354 129.25,-354 200,-354 200,-354 206,-354 212,-360 212,-366 212,-366 212,-378 212,-378 212,-384 206,-390 200,-390"/>
<text text-anchor="middle" x="164.62" y="-366.95" font-family="Times,serif" font-size="14.00">Virginica 1.00</text>
</g>
<!-- node11&#45;&gt;node22 -->
<g id="edge6" class="edge">
<title>node11&#45;&gt;node22</title>
<path fill="none" stroke="black" d="M164.62,-301.59C164.62,-313.24 164.62,-328.95 164.62,-342.48"/>
<polygon fill="black" stroke="black" points="161.13,-342.14 164.63,-352.14 168.13,-342.14 161.13,-342.14"/>
<text text-anchor="middle" x="173.62" y="-322.7" font-family="Times,serif" font-size="14.00">yes</text>
</g>
<!-- node21 -->
<g id="node9" class="node">
<title>node21</title>
<path fill="green" stroke="black" d="M313,-390C313,-390 242.25,-390 242.25,-390 236.25,-390 230.25,-384 230.25,-378 230.25,-378 230.25,-366 230.25,-366 230.25,-360 236.25,-354 242.25,-354 242.25,-354 313,-354 313,-354 319,-354 325,-360 325,-366 325,-366 325,-378 325,-378 325,-384 319,-390 313,-390"/>
<text text-anchor="middle" x="277.62" y="-366.95" font-family="Times,serif" font-size="14.00">Virginica 1.00</text>
</g>
<!-- node10&#45;&gt;node21 -->
<g id="edge8" class="edge">
<title>node10&#45;&gt;node21</title>
<path fill="none" stroke="black" d="M334.6,-301.59C324.45,-313.95 310.56,-330.87 299.04,-344.92"/>
<polygon fill="black" stroke="black" points="296.47,-342.53 292.83,-352.48 301.88,-346.97 296.47,-342.53"/>
<text text-anchor="middle" x="326.38" y="-322.7" font-family="Times,serif" font-size="14.00">no</text>
</g>
<!-- node20 -->
<g id="node10" class="node">
<title>node20</title>
<polygon fill="none" stroke="black" points="466.62,-390 342.62,-390 342.62,-354 466.62,-354 466.62,-390"/>
<text text-anchor="middle" x="404.62" y="-366.95" font-family="Times,serif" font-size="14.00">sepal_length &gt; 6.95</text>
</g>
<!-- node10&#45;&gt;node20 -->
<g id="edge9" class="edge">
<title>node10&#45;&gt;node20</title>
<path fill="none" stroke="black" d="M359.69,-301.59C367.54,-313.71 378.23,-330.23 387.22,-344.11"/>
<polygon fill="black" stroke="black" points="384.2,-345.89 392.57,-352.38 390.07,-342.08 384.2,-345.89"/>
<text text-anchor="middle" x="391.62" y="-322.7" font-family="Times,serif" font-size="14.00">yes</text>
</g>
<!-- node41 -->
<g id="node11" class="node">
<title>node41</title>
<path fill="green" stroke="black" d="M384.25,-478.5C384.25,-478.5 309,-478.5 309,-478.5 303,-478.5 297,-472.5 297,-466.5 297,-466.5 297,-454.5 297,-454.5 297,-448.5 303,-442.5 309,-442.5 309,-442.5 384.25,-442.5 384.25,-442.5 390.25,-442.5 396.25,-448.5 396.25,-454.5 396.25,-454.5 396.25,-466.5 396.25,-466.5 396.25,-472.5 390.25,-478.5 384.25,-478.5"/>
<text text-anchor="middle" x="346.62" y="-455.45" font-family="Times,serif" font-size="14.00">Versicolor 1.00</text>
</g>
<!-- node20&#45;&gt;node41 -->
<g id="edge10" class="edge">
<title>node20&#45;&gt;node41</title>
<path fill="none" stroke="black" d="M393.17,-390.09C385.04,-402.21 373.96,-418.73 364.66,-432.61"/>
<polygon fill="black" stroke="black" points="361.76,-430.64 359.1,-440.89 367.58,-434.54 361.76,-430.64"/>
<text text-anchor="middle" x="388.38" y="-411.2" font-family="Times,serif" font-size="14.00">no</text>
</g>
<!-- node40 -->
<g id="node12" class="node">
<title>node40</title>
<path fill="green" stroke="black" d="M497,-478.5C497,-478.5 426.25,-478.5 426.25,-478.5 420.25,-478.5 414.25,-472.5 414.25,-466.5 414.25,-466.5 414.25,-454.5 414.25,-454.5 414.25,-448.5 420.25,-442.5 426.25,-442.5 426.25,-442.5 497,-442.5 497,-442.5 503,-442.5 509,-448.5 509,-454.5 509,-454.5 509,-466.5 509,-466.5 509,-472.5 503,-478.5 497,-478.5"/>
<text text-anchor="middle" x="461.62" y="-455.45" font-family="Times,serif" font-size="14.00">Virginica 1.00</text>
</g>
<!-- node20&#45;&gt;node40 -->
<g id="edge11" class="edge">
<title>node20&#45;&gt;node40</title>
<path fill="none" stroke="black" d="M415.89,-390.09C423.88,-402.21 434.76,-418.73 443.91,-432.61"/>
<polygon fill="black" stroke="black" points="440.93,-434.46 449.36,-440.89 446.78,-430.61 440.93,-434.46"/>
<text text-anchor="middle" x="447.62" y="-411.2" font-family="Times,serif" font-size="14.00">yes</text>
</g>
<!-- node9 -->
<g id="node14" class="node">
<title>node9</title>
<polygon fill="none" stroke="black" points="596.62,-301.5 472.62,-301.5 472.62,-265.5 596.62,-265.5 596.62,-301.5"/>
<text text-anchor="middle" x="534.62" y="-278.45" font-family="Times,serif" font-size="14.00">sepal_length &gt; 5.95</text>
</g>
<!-- node4&#45;&gt;node9 -->
<g id="edge13" class="edge">
<title>node4&#45;&gt;node9</title>
<path fill="none" stroke="black" d="M534.62,-213.09C534.62,-224.74 534.62,-240.45 534.62,-253.98"/>
<polygon fill="black" stroke="black" points="531.13,-253.64 534.63,-263.64 538.13,-253.64 531.13,-253.64"/>
<text text-anchor="middle" x="541.38" y="-234.2" font-family="Times,serif" font-size="14.00">no</text>
</g>
<!-- node8 -->
<g id="node17" class="node">
<title>node8</title>
<path fill="green" stroke="black" d="M697,-301.5C697,-301.5 626.25,-301.5 626.25,-301.5 620.25,-301.5 614.25,-295.5 614.25,-289.5 614.25,-289.5 614.25,-277.5 614.25,-277.5 614.25,-271.5 620.25,-265.5 626.25,-265.5 626.25,-265.5 697,-265.5 697,-265.5 703,-265.5 709,-271.5 709,-277.5 709,-277.5 709,-289.5 709,-289.5 709,-295.5 703,-301.5 697,-301.5"/>
<text text-anchor="middle" x="661.62" y="-278.45" font-family="Times,serif" font-size="14.00">Virginica 1.00</text>
</g>
<!-- node4&#45;&gt;node8 -->
<g id="edge16" class="edge">
<title>node4&#45;&gt;node8</title>
<path fill="none" stroke="black" d="M560.02,-213.3C579.23,-226.38 605.82,-244.49 626.98,-258.9"/>
<polygon fill="black" stroke="black" points="624.79,-261.64 635.02,-264.38 628.73,-255.86 624.79,-261.64"/>
<text text-anchor="middle" x="617.62" y="-234.2" font-family="Times,serif" font-size="14.00">yes</text>
</g>
<!-- node19 -->
<g id="node15" class="node">
<title>node19</title>
<path fill="green" stroke="black" d="M572.25,-390C572.25,-390 497,-390 497,-390 491,-390 485,-384 485,-378 485,-378 485,-366 485,-366 485,-360 491,-354 497,-354 497,-354 572.25,-354 572.25,-354 578.25,-354 584.25,-360 584.25,-366 584.25,-366 584.25,-378 584.25,-378 584.25,-384 578.25,-390 572.25,-390"/>
<text text-anchor="middle" x="534.62" y="-366.95" font-family="Times,serif" font-size="14.00">Versicolor 1.00</text>
</g>
<!-- node9&#45;&gt;node19 -->
<g id="edge14" class="edge">
<title>node9&#45;&gt;node19</title>
<path fill="none" stroke="black" d="M534.62,-301.59C534.62,-313.24 534.62,-328.95 534.62,-342.48"/>
<polygon fill="black" stroke="black" points="531.13,-342.14 534.63,-352.14 538.13,-342.14 531.13,-342.14"/>
<text text-anchor="middle" x="541.38" y="-322.7" font-family="Times,serif" font-size="14.00">no</text>
</g>
<!-- node18 -->
<g id="node16" class="node">
<title>node18</title>
<path fill="green" stroke="black" d="M685,-390C685,-390 614.25,-390 614.25,-390 608.25,-390 602.25,-384 602.25,-378 602.25,-378 602.25,-366 602.25,-366 602.25,-360 608.25,-354 614.25,-354 614.25,-354 685,-354 685,-354 691,-354 697,-360 697,-366 697,-366 697,-378 697,-378 697,-384 691,-390 685,-390"/>
<text text-anchor="middle" x="649.62" y="-366.95" font-family="Times,serif" font-size="14.00">Virginica 1.00</text>
</g>
<!-- node9&#45;&gt;node18 -->
<g id="edge15" class="edge">
<title>node9&#45;&gt;node18</title>
<path fill="none" stroke="black" d="M557.62,-301.8C574.78,-314.7 598.44,-332.5 617.47,-346.82"/>
<polygon fill="black" stroke="black" points="615.36,-349.61 625.46,-352.82 619.57,-344.02 615.36,-349.61"/>
<text text-anchor="middle" x="610.62" y="-322.7" font-family="Times,serif" font-size="14.00">yes</text>
</g>
</g>
</svg>
