<?xml version="1.0" encoding="UTF-8" standalone="no"?>
<!DOCTYPE svg PUBLIC "-//W3C//DTD SVG 1.1//EN"
 "http://www.w3.org/Graphics/SVG/1.1/DTD/svg11.dtd">
<!-- Generated by graphviz version 11.0.0 (0)
 -->
<!-- Pages: 1 -->
<svg width="539pt" height="398pt"
 viewBox="0.00 0.00 539.00 398.00" xmlns="http://www.w3.org/2000/svg" xmlns:xlink="http://www.w3.org/1999/xlink">
<g id="graph0" class="graph" transform="scale(1 1) rotate(0) translate(4 394)">
<polygon fill="white" stroke="none" points="-4,4 -4,-394 535,-394 535,4 -4,4"/>
<!-- node1 -->
<g id="node1" class="node">
<title>node1</title>
<polygon fill="none" stroke="black" points="265.88,-36 143.38,-36 143.38,0 265.88,0 265.88,-36"/>
<text text-anchor="middle" x="204.62" y="-12.95" font-family="Times,serif" font-size="14.00">petal_length &gt; 2.45</text>
</g>
<!-- node3 -->
<g id="node2" class="node">
<title>node3</title>
<path fill="green" stroke="black" d="M214.12,-124.5C214.12,-124.5 159.12,-124.5 159.12,-124.5 153.12,-124.5 147.12,-118.5 147.12,-112.5 147.12,-112.5 147.12,-100.5 147.12,-100.5 147.12,-94.5 153.12,-88.5 159.12,-88.5 159.12,-88.5 214.12,-88.5 214.12,-88.5 220.12,-88.5 226.12,-94.5 226.12,-100.5 226.12,-100.5 226.12,-112.5 226.12,-112.5 226.12,-118.5 220.12,-124.5 214.12,-124.5"/>
<text text-anchor="middle" x="186.62" y="-101.45" font-family="Times,serif" font-size="14.00">Setosa 1.00</text>
</g>
<!-- node1&#45;&gt;node3 -->
<g id="edge1" class="edge">
<title>node1&#45;&gt;node3</title>
<path fill="none" stroke="black" d="M201.07,-36.09C198.64,-47.74 195.37,-63.45 192.56,-76.98"/>
<polygon fill="black" stroke="black" points="189.15,-76.16 190.54,-86.67 196.01,-77.59 189.15,-76.16"/>
<text text-anchor="middle" x="204.38" y="-57.2" font-family="Times,serif" font-size="14.00">no</text>
</g>
<!-- node2 -->
<g id="node3" class="node">
<title>node2</title>
<polygon fill="none" stroke="black" points="363.38,-124.5 243.88,-124.5 243.88,-88.5 363.38,-88.5 363.38,-124.5"/>
<text text-anchor="middle" x="303.62" y="-101.45" font-family="Times,serif" font-size="14.00">petal_width &gt; 1.75</text>
</g>
<!-- node1&#45;&gt;node2 -->
<g id="edge2" class="edge">
<title>node1&#45;&gt;node2</title>
<path fill="none" stroke="black" d="M224.18,-36.09C238.73,-48.8 258.81,-66.34 275.14,-80.61"/>
<polygon fill="black" stroke="black" points="272.79,-83.21 282.63,-87.15 277.4,-77.94 272.79,-83.21"/>
<text text-anchor="middle" x="272.62" y="-57.2" font-family="Times,serif" font-size="14.00">yes</text>
</g>
<!-- node5 -->
<g id="node4" class="node">
<title>node5</title>
<polygon fill="none" stroke="black" points="281.62,-213 157.62,-213 157.62,-177 281.62,-177 281.62,-213"/>
<text text-anchor="middle" x="219.62" y="-189.95" font-family="Times,serif" font-size="14.00">sepal_length &gt; 7.10</text>
</g>
<!-- node2&#45;&gt;node5 -->
<g id="edge3" class="edge">
<title>node2&#45;&gt;node5</title>
<path fill="none" stroke="black" d="M287.03,-124.59C274.8,-137.18 257.96,-154.52 244.18,-168.71"/>
<polygon fill="black" stroke="black" points="241.98,-165.95 237.53,-175.56 247.01,-170.83 241.98,-165.95"/>
<text text-anchor="middle" x="276.38" y="-145.7" font-family="Times,serif" font-size="14.00">no</text>
</g>
<!-- node4 -->
<g id="node9" class="node">
<title>node4</title>
<polygon fill="none" stroke="black" points="423.62,-213 299.62,-213 299.62,-177 423.62,-177 423.62,-213"/>
<text text-anchor="middle" x="361.62" y="-189.95" font-family="Times,serif" font-size="14.00">sepal_length &gt; 5.95</text>
</g>
<!-- node2&#45;&gt;node4 -->
<g id="edge8" class="edge">
<title>node2&#45;&gt;node4</title>
<path fill="none" stroke="black" d="M315.08,-124.59C323.21,-136.71 334.29,-153.23 343.59,-167.11"/>
<polygon fill="black" stroke="black" points="340.67,-169.04 349.15,-175.39 346.49,-165.14 340.67,-169.04"/>
<text text-anchor="middle" x="347.62" y="-145.7" font-family="Times,serif" font-size="14.00">yes</text>
</g>
<!-- node11 -->
<g id="node5" class="node">
<title>node11</title>
<polygon fill="none" stroke="black" points="162.12,-301.5 41.12,-301.5 41.12,-265.5 162.12,-265.5 162.12,-301.5"/>
<text text-anchor="middle" x="101.62" y="-278.45" font-family="Times,serif" font-size="14.00">sepal_width &gt; 2.85</text>
</g>
<!-- node5&#45;&gt;node11 -->
<g id="edge4" class="edge">
<title>node5&#45;&gt;node11</title>
<path fill="none" stroke="black" d="M196.03,-213.3C178.34,-226.26 153.92,-244.16 134.35,-258.51"/>
<polygon fill="black" stroke="black" points="132.4,-255.6 126.4,-264.34 136.53,-261.25 132.4,-255.6"/>
<text text-anchor="middle" x="178.38" y="-234.2" font-family="Times,serif" font-size="14.00">no</text>
</g>
<!-- node10 -->
<g id="node8" class="node">
<title>node10</title>
<path fill="green" stroke="black" d="M263,-301.5C263,-301.5 192.25,-301.5 192.25,-301.5 186.25,-301.5 180.25,-295.5 180.25,-289.5 180.25,-289.5 180.25,-277.5 180.25,-277.5 180.25,-271.5 186.25,-265.5 192.25,-265.5 192.25,-265.5 263,-265.5 263,-265.5 269,-265.5 275,-271.5 275,-277.5 275,-277.5 275,-289.5 275,-289.5 275,-295.5 269,-301.5 263,-301.5"/>
<text text-anchor="middle" x="227.62" y="-278.45" font-family="Times,serif" font-size="14.00">Virginica 1.00</text>
</g>
<!-- node5&#45;&gt;node10 -->
<g id="edge7" class="edge">
<title>node5&#45;&gt;node10</title>
<path fill="none" stroke="black" d="M221.21,-213.09C222.28,-224.74 223.74,-240.45 224.99,-253.98"/>
<polygon fill="black" stroke="black" points="221.47,-254.01 225.88,-263.64 228.45,-253.36 221.47,-254.01"/>
<text text-anchor="middle" x="233.62" y="-234.2" font-family="Times,serif" font-size="14.00">yes</text>
</g>
<!-- node23 -->
<g id="node6" class="node">
<title>node23</title>
<path fill="green" stroke="black" d="M87.25,-390C87.25,-390 12,-390 12,-390 6,-390 0,-384 0,-378 0,-378 0,-366 0,-366 0,-360 6,-354 12,-354 12,-354 87.25,-354 87.25,-354 93.25,-354 99.25,-360 99.25,-366 99.25,-366 99.25,-378 99.25,-378 99.25,-384 93.25,-390 87.25,-390"/>
<text text-anchor="middle" x="49.62" y="-366.95" font-family="Times,serif" font-size="14.00">Versicolor 0.87</text>
</g>
<!-- node11&#45;&gt;node23 -->
<g id="edge5" class="edge">
<title>node11&#45;&gt;node23</title>
<path fill="none" stroke="black" d="M91.35,-301.59C84.06,-313.71 74.13,-330.23 65.79,-344.11"/>
<polygon fill="black" stroke="black" points="62.99,-341.98 60.83,-352.35 68.99,-345.59 62.99,-341.98"/>
<text text-anchor="middle" x="87.38" y="-322.7" font-family="Times,serif" font-size="14.00">no</text>
</g>
<!-- node22 -->
<g id="node7" class="node">
<title>node22</title>
<path fill="green" stroke="black" d="M204.25,-390C204.25,-390 129,-390 129,-390 123,-390 117,-384 117,-378 117,-378 117,-366 117,-366 117,-360 123,-354 129,-354 129,-354 204.25,-354 204.25,-354 210.25,-354 216.25,-360 216.25,-366 216.25,-366 216.25,-378 216.25,-378 216.25,-384 210.25,-390 204.25,-390"/>
<text text-anchor="middle" x="166.62" y="-366.95" font-family="Times,serif" font-size="14.00">Versicolor 1.00</text>
</g>
<!-- node11&#45;&gt;node22 -->
<g id="edge6" class="edge">
<title>node11&#45;&gt;node22</title>
<path fill="none" stroke="black" d="M114.47,-301.59C123.67,-313.83 136.23,-330.55 146.72,-344.51"/>
<polygon fill="black" stroke="black" points="143.87,-346.55 152.68,-352.44 149.47,-342.34 143.87,-346.55"/>
<text text-anchor="middle" x="149.62" y="-322.7" font-family="Times,serif" font-size="14.00">yes</text>
</g>
<!-- node9 -->
<g id="node10" class="node">
<title>node9</title>
<polygon fill="none" stroke="black" points="418.12,-301.5 297.12,-301.5 297.12,-265.5 418.12,-265.5 418.12,-301.5"/>
<text text-anchor="middle" x="357.62" y="-278.45" font-family="Times,serif" font-size="14.00">sepal_width &gt; 3.10</text>
</g>
<!-- node4&#45;&gt;node9 -->
<g id="edge9" class="edge">
<title>node4&#45;&gt;node9</title>
<path fill="none" stroke="black" d="M360.83,-213.09C360.3,-224.74 359.57,-240.45 358.94,-253.98"/>
<polygon fill="black" stroke="black" points="355.46,-253.49 358.5,-263.64 362.46,-253.81 355.46,-253.49"/>
<text text-anchor="middle" x="367.38" y="-234.2" font-family="Times,serif" font-size="14.00">no</text>
</g>
<!-- node8 -->
<g id="node13" class="node">
<title>node8</title>
<path fill="green" stroke="black" d="M519,-301.5C519,-301.5 448.25,-301.5 448.25,-301.5 442.25,-301.5 436.25,-295.5 436.25,-289.5 436.25,-289.5 436.25,-277.5 436.25,-277.5 436.25,-271.5 442.25,-265.5 448.25,-265.5 448.25,-265.5 519,-265.5 519,-265.5 525,-265.5 531,-271.5 531,-277.5 531,-277.5 531,-289.5 531,-289.5 531,-295.5 525,-301.5 519,-301.5"/>
<text text-anchor="middle" x="483.62" y="-278.45" font-family="Times,serif" font-size="14.00">Virginica 1.00</text>
</g>
<!-- node4&#45;&gt;node8 -->
<g id="edge12" class="edge">
<title>node4&#45;&gt;node8</title>
<path fill="none" stroke="black" d="M386.02,-213.3C404.39,-226.32 429.79,-244.33 450.07,-258.71"/>
<polygon fill="black" stroke="black" points="447.86,-261.43 458.04,-264.36 451.9,-255.72 447.86,-261.43"/>
<text text-anchor="middle" x="441.62" y="-234.2" font-family="Times,serif" font-size="14.00">yes</text>
</g>
<!-- node19 -->
<g id="node11" class="node">
<title>node19</title>
<path fill="green" stroke="black" d="M330,-390C330,-390 259.25,-390 259.25,-390 253.25,-390 247.25,-384 247.25,-378 247.25,-378 247.25,-366 247.25,-366 247.25,-360 253.25,-354 259.25,-354 259.25,-354 330,-354 330,-354 336,-354 342,-360 342,-366 342,-366 342,-378 342,-378 342,-384 336,-390 330,-390"/>
<text text-anchor="middle" x="294.62" y="-366.95" font-family="Times,serif" font-size="14.00">Virginica 1.00</text>
</g>
<!-- node9&#45;&gt;node19 -->
<g id="edge10" class="edge">
<title>node9&#45;&gt;node19</title>
<path fill="none" stroke="black" d="M345.18,-301.59C336.26,-313.83 324.09,-330.55 313.92,-344.51"/>
<polygon fill="black" stroke="black" points="311.21,-342.28 308.15,-352.43 316.87,-346.4 311.21,-342.28"/>
<text text-anchor="middle" x="339.38" y="-322.7" font-family="Times,serif" font-size="14.00">no</text>
</g>
<!-- node18 -->
<g id="node12" class="node">
<title>node18</title>
<path fill="green" stroke="black" d="M447.25,-390C447.25,-390 372,-390 372,-390 366,-390 360,-384 360,-378 360,-378 360,-366 360,-366 360,-360 366,-354 372,-354 372,-354 447.25,-354 447.25,-354 453.25,-354 459.25,-360 459.25,-366 459.25,-366 459.25,-378 459.25,-378 459.25,-384 453.25,-390 447.25,-390"/>
<text text-anchor="middle" x="409.62" y="-366.95" font-family="Times,serif" font-size="14.00">Versicolor 1.00</text>
</g>
<!-- node9&#45;&gt;node18 -->
<g id="edge11" class="edge">
<title>node9&#45;&gt;node18</title>
<path fill="none" stroke="black" d="M367.9,-301.59C375.19,-313.71 385.12,-330.23 393.46,-344.11"/>
<polygon fill="black" stroke="black" points="390.26,-345.59 398.42,-352.35 396.26,-341.98 390.26,-345.59"/>
<text text-anchor="middle" x="396.62" y="-322.7" font-family="Times,serif" font-size="14.00">yes</text>
</g>
</g>
</svg>
