<?xml version="1.0" encoding="UTF-8" standalone="no"?>
<!DOCTYPE svg PUBLIC "-//W3C//DTD SVG 1.1//EN"
 "http://www.w3.org/Graphics/SVG/1.1/DTD/svg11.dtd">
<!-- Generated by graphviz version 11.0.0 (0)
 -->
<!-- Pages: 1 -->
<svg width="539pt" height="418pt"
 viewBox="0.00 0.00 539.00 418.00" xmlns="http://www.w3.org/2000/svg" xmlns:xlink="http://www.w3.org/1999/xlink">
<g id="graph0" class="graph" transform="scale(1 1) rotate(0) translate(4 414)">
<polygon fill="white" stroke="none" points="-4,4 -4,-414 535,-414 535,4 -4,4"/>
<!-- node1 -->
<g id="node1" class="node">
<title>node1</title>
<polygon fill="none" stroke="black" points="265.88,-41 143.38,-41 143.38,0 265.88,0 265.88,-41"/>
<text text-anchor="middle" x="204.62" y="-23.7" font-family="Times,serif" font-size="14.00">petal_length &gt; 2.45</text>
<text text-anchor="middle" x="204.62" y="-7.2" font-family="Times,serif" font-size="14.00">gini: 3.33e&#45;1</text>
</g>
<!-- node3 -->
<g id="node2" class="node">
<title>node3</title>
<path fill="green" stroke="black" d="M214.12,-132C214.12,-132 159.12,-132 159.12,-132 153.12,-132 147.12,-126 147.12,-120 147.12,-120 147.12,-108 147.12,-108 147.12,-102 153.12,-96 159.12,-96 159.12,-96 214.12,-96 214.12,-96 220.12,-96 226.12,-102 226.12,-108 226.12,-108 226.12,-120 226.12,-120 226.12,-126 220.12,-132 214.12,-132"/>
<text text-anchor="middle" x="186.62" y="-108.95" font-family="Times,serif" font-size="14.00">Setosa 1.00</text>
</g>
<!-- node1&#45;&gt;node3 -->
<g id="edge1" class="edge">
<title>node1&#45;&gt;node3</title>
<path fill="none" stroke="black" d="M200.72,-41.35C198.23,-54 194.97,-70.59 192.21,-84.61"/>
<polygon fill="black" stroke="black" points="188.83,-83.68 190.33,-94.17 195.69,-85.03 188.83,-83.68"/>
<text text-anchor="middle" x="204.38" y="-62.2" font-family="Times,serif" font-size="14.00">no</text>
</g>
<!-- node2 -->
<g id="node3" class="node">
<title>node2</title>
<polygon fill="none" stroke="black" points="363.38,-134.5 243.88,-134.5 243.88,-93.5 363.38,-93.5 363.38,-134.5"/>
<text text-anchor="middle" x="303.62" y="-117.2" font-family="Times,serif" font-size="14.00">petal_width &gt; 1.75</text>
<text text-anchor="middle" x="303.62" y="-100.7" font-family="Times,serif" font-size="14.00">gini: 1.10e&#45;1</text>
</g>
<!-- node1&#45;&gt;node2 -->
<g id="edge2" class="edge">
<title>node1&#45;&gt;node2</title>
<path fill="none" stroke="black" d="M226.11,-41.35C240.12,-54.3 258.59,-71.38 273.99,-85.61"/>
<polygon fill="black" stroke="black" points="271.35,-87.94 281.07,-92.16 276.11,-82.8 271.35,-87.94"/>
<text text-anchor="middle" x="272.62" y="-62.2" font-family="Times,serif" font-size="14.00">yes</text>
</g>
<!-- node5 -->
<g id="node4" class="node">
<title>node5</title>
<polygon fill="none" stroke="black" points="281.62,-228 157.62,-228 157.62,-187 281.62,-187 281.62,-228"/>
<text text-anchor="middle" x="219.62" y="-210.7" font-family="Times,serif" font-size="14.00">sepal_length &gt; 7.10</text>
<text text-anchor="middle" x="219.62" y="-194.2" font-family="Times,serif" font-size="14.00">gini: 1.37e&#45;1</text>
</g>
<!-- node2&#45;&gt;node5 -->
<g id="edge3" class="edge">
<title>node2&#45;&gt;node5</title>
<path fill="none" stroke="black" d="M285.4,-134.85C273.73,-147.56 258.41,-164.25 245.49,-178.32"/>
<polygon fill="black" stroke="black" points="243.02,-175.84 238.84,-185.57 248.18,-180.57 243.02,-175.84"/>
<text text-anchor="middle" x="276.38" y="-155.7" font-family="Times,serif" font-size="14.00">no</text>
</g>
<!-- node4 -->
<g id="node9" class="node">
<title>node4</title>
<polygon fill="none" stroke="black" points="423.62,-228 299.62,-228 299.62,-187 423.62,-187 423.62,-228"/>
<text text-anchor="middle" x="361.62" y="-210.7" font-family="Times,serif" font-size="14.00">sepal_length &gt; 5.95</text>
<text text-anchor="middle" x="361.62" y="-194.2" font-family="Times,serif" font-size="14.00">gini: 3.73e&#45;2</text>
</g>
<!-- node2&#45;&gt;node4 -->
<g id="edge8" class="edge">
<title>node2&#45;&gt;node4</title>
<path fill="none" stroke="black" d="M316.21,-134.85C324.04,-147.2 334.25,-163.31 343,-177.12"/>
<polygon fill="black" stroke="black" points="339.94,-178.83 348.25,-185.41 345.86,-175.09 339.94,-178.83"/>
<text text-anchor="middle" x="347.62" y="-155.7" font-family="Times,serif" font-size="14.00">yes</text>
</g>
<!-- node11 -->
<g id="node5" class="node">
<title>node11</title>
<polygon fill="none" stroke="black" points="162.12,-321.5 41.12,-321.5 41.12,-280.5 162.12,-280.5 162.12,-321.5"/>
<text text-anchor="middle" x="101.62" y="-304.2" font-family="Times,serif" font-size="14.00">sepal_width &gt; 2.85</text>
<text text-anchor="middle" x="101.62" y="-287.7" font-family="Times,serif" font-size="14.00">gini: 1.31e&#45;1</text>
</g>
<!-- node5&#45;&gt;node11 -->
<g id="edge4" class="edge">
<title>node5&#45;&gt;node11</title>
<path fill="none" stroke="black" d="M194.02,-228.35C177.09,-241.48 154.69,-258.86 136.18,-273.21"/>
<polygon fill="black" stroke="black" points="134.13,-270.36 128.38,-279.26 138.42,-275.9 134.13,-270.36"/>
<text text-anchor="middle" x="178.38" y="-249.2" font-family="Times,serif" font-size="14.00">no</text>
</g>
<!-- node10 -->
<g id="node8" class="node">
<title>node10</title>
<path fill="green" stroke="black" d="M263,-319C263,-319 192.25,-319 192.25,-319 186.25,-319 180.25,-313 180.25,-307 180.25,-307 180.25,-295 180.25,-295 180.25,-289 186.25,-283 192.25,-283 192.25,-283 263,-283 263,-283 269,-283 275,-289 275,-295 275,-295 275,-307 275,-307 275,-313 269,-319 263,-319"/>
<text text-anchor="middle" x="227.62" y="-295.95" font-family="Times,serif" font-size="14.00">Virginica 1.00</text>
</g>
<!-- node5&#45;&gt;node10 -->
<g id="edge7" class="edge">
<title>node5&#45;&gt;node10</title>
<path fill="none" stroke="black" d="M221.36,-228.35C222.46,-240.87 223.89,-257.25 225.11,-271.19"/>
<polygon fill="black" stroke="black" points="221.62,-271.49 225.98,-281.14 228.59,-270.88 221.62,-271.49"/>
<text text-anchor="middle" x="233.62" y="-249.2" font-family="Times,serif" font-size="14.00">yes</text>
</g>
<!-- node23 -->
<g id="node6" class="node">
<title>node23</title>
<path fill="green" stroke="black" d="M87.25,-410C87.25,-410 12,-410 12,-410 6,-410 0,-404 0,-398 0,-398 0,-386 0,-386 0,-380 6,-374 12,-374 12,-374 87.25,-374 87.25,-374 93.25,-374 99.25,-380 99.25,-386 99.25,-386 99.25,-398 99.25,-398 99.25,-404 93.25,-410 87.25,-410"/>
<text text-anchor="middle" x="49.62" y="-386.95" font-family="Times,serif" font-size="14.00">Versicolor 0.87</text>
</g>
<!-- node11&#45;&gt;node23 -->
<g id="edge5" class="edge">
<title>node11&#45;&gt;node23</title>
<path fill="none" stroke="black" d="M90.08,-321.75C82.84,-334.16 73.39,-350.33 65.45,-363.92"/>
<polygon fill="black" stroke="black" points="62.51,-362 60.49,-372.4 68.56,-365.53 62.51,-362"/>
<text text-anchor="middle" x="86.38" y="-342.7" font-family="Times,serif" font-size="14.00">no</text>
</g>
<!-- node22 -->
<g id="node7" class="node">
<title>node22</title>
<path fill="green" stroke="black" d="M204.25,-410C204.25,-410 129,-410 129,-410 123,-410 117,-404 117,-398 117,-398 117,-386 117,-386 117,-380 123,-374 129,-374 129,-374 204.25,-374 204.25,-374 210.25,-374 216.25,-380 216.25,-386 216.25,-386 216.25,-398 216.25,-398 216.25,-404 210.25,-410 204.25,-410"/>
<text text-anchor="middle" x="166.62" y="-386.95" font-family="Times,serif" font-size="14.00">Versicolor 1.00</text>
</g>
<!-- node11&#45;&gt;node22 -->
<g id="edge6" class="edge">
<title>node11&#45;&gt;node22</title>
<path fill="none" stroke="black" d="M116.05,-321.75C125.29,-334.4 137.38,-350.96 147.43,-364.72"/>
<polygon fill="black" stroke="black" points="144.38,-366.47 153.1,-372.49 150.03,-362.35 144.38,-366.47"/>
<text text-anchor="middle" x="149.62" y="-342.7" font-family="Times,serif" font-size="14.00">yes</text>
</g>
<!-- node9 -->
<g id="node10" class="node">
<title>node9</title>
<polygon fill="none" stroke="black" points="418.12,-321.5 297.12,-321.5 297.12,-280.5 418.12,-280.5 418.12,-321.5"/>
<text text-anchor="middle" x="357.62" y="-304.2" font-family="Times,serif" font-size="14.00">sepal_width &gt; 3.10</text>
<text text-anchor="middle" x="357.62" y="-287.7" font-family="Times,serif" font-size="14.00">gini: 0.00e0</text>
</g>
<!-- node4&#45;&gt;node9 -->
<g id="edge9" class="edge">
<title>node4&#45;&gt;node9</title>
<path fill="none" stroke="black" d="M360.76,-228.35C360.24,-240.22 359.57,-255.56 358.98,-269"/>
<polygon fill="black" stroke="black" points="355.5,-268.53 358.56,-278.67 362.49,-268.83 355.5,-268.53"/>
<text text-anchor="middle" x="367.38" y="-249.2" font-family="Times,serif" font-size="14.00">no</text>
</g>
<!-- node8 -->
<g id="node13" class="node">
<title>node8</title>
<path fill="green" stroke="black" d="M519,-319C519,-319 448.25,-319 448.25,-319 442.25,-319 436.25,-313 436.25,-307 436.25,-307 436.25,-295 436.25,-295 436.25,-289 442.25,-283 448.25,-283 448.25,-283 519,-283 519,-283 525,-283 531,-289 531,-295 531,-295 531,-307 531,-307 531,-313 525,-319 519,-319"/>
<text text-anchor="middle" x="483.62" y="-295.95" font-family="Times,serif" font-size="14.00">Virginica 1.00</text>
</g>
<!-- node4&#45;&gt;node8 -->
<g id="edge12" class="edge">
<title>node4&#45;&gt;node8</title>
<path fill="none" stroke="black" d="M388.1,-228.35C406.73,-242.33 431.77,-261.11 451.54,-275.94"/>
<polygon fill="black" stroke="black" points="449.18,-278.54 459.28,-281.74 453.38,-272.94 449.18,-278.54"/>
<text text-anchor="middle" x="441.62" y="-249.2" font-family="Times,serif" font-size="14.00">yes</text>
</g>
<!-- node19 -->
<g id="node11" class="node">
<title>node19</title>
<path fill="green" stroke="black" d="M330,-410C330,-410 259.25,-410 259.25,-410 253.25,-410 247.25,-404 247.25,-398 247.25,-398 247.25,-386 247.25,-386 247.25,-380 253.25,-374 259.25,-374 259.25,-374 330,-374 330,-374 336,-374 342,-380 342,-386 342,-386 342,-398 342,-398 342,-404 336,-410 330,-410"/>
<text text-anchor="middle" x="294.62" y="-386.95" font-family="Times,serif" font-size="14.00">Virginica 1.00</text>
</g>
<!-- node9&#45;&gt;node19 -->
<g id="edge10" class="edge">
<title>node9&#45;&gt;node19</title>
<path fill="none" stroke="black" d="M343.64,-321.75C334.78,-334.28 323.19,-350.64 313.51,-364.32"/>
<polygon fill="black" stroke="black" points="310.66,-362.29 307.74,-372.47 316.37,-366.33 310.66,-362.29"/>
<text text-anchor="middle" x="337.38" y="-342.7" font-family="Times,serif" font-size="14.00">no</text>
</g>
<!-- node18 -->
<g id="node12" class="node">
<title>node18</title>
<path fill="green" stroke="black" d="M447.25,-410C447.25,-410 372,-410 372,-410 366,-410 360,-404 360,-398 360,-398 360,-386 360,-386 360,-380 366,-374 372,-374 372,-374 447.25,-374 447.25,-374 453.25,-374 459.25,-380 459.25,-386 459.25,-386 459.25,-398 459.25,-398 459.25,-404 453.25,-410 447.25,-410"/>
<text text-anchor="middle" x="409.62" y="-386.95" font-family="Times,serif" font-size="14.00">Versicolor 1.00</text>
</g>
<!-- node9&#45;&gt;node18 -->
<g id="edge11" class="edge">
<title>node9&#45;&gt;node18</title>
<path fill="none" stroke="black" d="M369.17,-321.75C376.41,-334.16 385.86,-350.33 393.8,-363.92"/>
<polygon fill="black" stroke="black" points="390.69,-365.53 398.76,-372.4 396.74,-362 390.69,-365.53"/>
<text text-anchor="middle" x="396.62" y="-342.7" font-family="Times,serif" font-size="14.00">yes</text>
</g>
</g>
</svg>
