<?xml version="1.0" encoding="UTF-8" standalone="no"?>
<!DOCTYPE svg PUBLIC "-//W3C//DTD SVG 1.1//EN"
 "http://www.w3.org/Graphics/SVG/1.1/DTD/svg11.dtd">
<!-- Generated by graphviz version 11.0.0 (0)
 -->
<!-- Pages: 1 -->
<svg width="134pt" height="310pt"
 viewBox="0.00 0.00 134.00 309.50" xmlns="http://www.w3.org/2000/svg" xmlns:xlink="http://www.w3.org/1999/xlink">
<g id="graph0" class="graph" transform="scale(1 1) rotate(0) translate(4 305.5)">
<polygon fill="white" stroke="none" points="-4,4 -4,-305.5 130,-305.5 130,4 -4,4"/>
<!-- node1 -->
<g id="node1" class="node">
<title>node1</title>
<polygon fill="none" stroke="black" points="79,-36 25,-36 25,0 79,0 79,-36"/>
<text text-anchor="middle" x="52" y="-12.95" font-family="Times,serif" font-size="14.00">8</text>
</g>
<!-- node3 -->
<g id="node2" class="node">
<title>node3</title>
<path fill="green" stroke="black" d="M42,-124.5C42,-124.5 12,-124.5 12,-124.5 6,-124.5 0,-118.5 0,-112.5 0,-112.5 0,-100.5 0,-100.5 0,-94.5 6,-88.5 12,-88.5 12,-88.5 42,-88.5 42,-88.5 48,-88.5 54,-94.5 54,-100.5 54,-100.5 54,-112.5 54,-112.5 54,-118.5 48,-124.5 42,-124.5"/>
<text text-anchor="middle" x="27" y="-101.45" font-family="Times,serif" font-size="14.00">10</text>
</g>
<!-- node1&#45;&gt;node3 -->
<g id="edge1" class="edge">
<title>node1&#45;&gt;node3</title>
<path fill="none" stroke="black" d="M47.06,-36.09C43.66,-47.86 39.06,-63.77 35.12,-77.39"/>
<polygon fill="black" stroke="black" points="31.85,-76.12 32.43,-86.7 38.57,-78.06 31.85,-76.12"/>
<text text-anchor="middle" x="45.12" y="-57.2" font-family="Times,serif" font-size="14.00">&lt;</text>
</g>
<!-- node2 -->
<g id="node3" class="node">
<title>node2</title>
<polygon fill="none" stroke="black" points="126,-124.5 72,-124.5 72,-88.5 126,-88.5 126,-124.5"/>
<text text-anchor="middle" x="99" y="-101.45" font-family="Times,serif" font-size="14.00">4</text>
</g>
<!-- node1&#45;&gt;node2 -->
<g id="edge2" class="edge">
<title>node1&#45;&gt;node2</title>
<path fill="none" stroke="black" d="M61.29,-36.09C67.81,-48.1 76.67,-64.41 84.17,-78.2"/>
<polygon fill="black" stroke="black" points="81,-79.7 88.85,-86.82 87.15,-76.36 81,-79.7"/>
<text text-anchor="middle" x="83.12" y="-57.2" font-family="Times,serif" font-size="14.00">&gt;</text>
</g>
<!-- node5 -->
<g id="node4" class="node">
<title>node5</title>
<polygon fill="none" stroke="black" points="126,-213 72,-213 72,-177 126,-177 126,-213"/>
<text text-anchor="middle" x="99" y="-189.95" font-family="Times,serif" font-size="14.00">6</text>
</g>
<!-- node2&#45;&gt;node5 -->
<g id="edge3" class="edge">
<title>node2&#45;&gt;node5</title>
<path fill="none" stroke="black" d="M99,-124.59C99,-136.24 99,-151.95 99,-165.48"/>
<polygon fill="black" stroke="black" points="95.5,-165.14 99,-175.14 102.5,-165.14 95.5,-165.14"/>
<text text-anchor="middle" x="103.12" y="-145.7" font-family="Times,serif" font-size="14.00">&lt;</text>
</g>
<!-- node10 -->
<g id="node5" class="node">
<title>node10</title>
<path fill="green" stroke="black" d="M114,-301.5C114,-301.5 84,-301.5 84,-301.5 78,-301.5 72,-295.5 72,-289.5 72,-289.5 72,-277.5 72,-277.5 72,-271.5 78,-265.5 84,-265.5 84,-265.5 114,-265.5 114,-265.5 120,-265.5 126,-271.5 126,-277.5 126,-277.5 126,-289.5 126,-289.5 126,-295.5 120,-301.5 114,-301.5"/>
<text text-anchor="middle" x="99" y="-278.45" font-family="Times,serif" font-size="14.00">5</text>
</g>
<!-- node5&#45;&gt;node10 -->
<g id="edge4" class="edge">
<title>node5&#45;&gt;node10</title>
<path fill="none" stroke="black" d="M99,-213.09C99,-224.74 99,-240.45 99,-253.98"/>
<polygon fill="black" stroke="black" points="95.5,-253.64 99,-263.64 102.5,-253.64 95.5,-253.64"/>
<text text-anchor="middle" x="103.12" y="-234.2" font-family="Times,serif" font-size="14.00">&gt;</text>
</g>
</g>
</svg>
