<?xml version="1.0" encoding="UTF-8" standalone="no"?>
<!DOCTYPE svg PUBLIC "-//W3C//DTD SVG 1.1//EN"
 "http://www.w3.org/Graphics/SVG/1.1/DTD/svg11.dtd">
<!-- Generated by graphviz version 11.0.0 (0)
 -->
<!-- Pages: 1 -->
<svg width="206pt" height="487pt"
 viewBox="0.00 0.00 206.00 486.50" xmlns="http://www.w3.org/2000/svg" xmlns:xlink="http://www.w3.org/1999/xlink">
<g id="graph0" class="graph" transform="scale(1 1) rotate(0) translate(4 482.5)">
<polygon fill="white" stroke="none" points="-4,4 -4,-482.5 202,-482.5 202,4 -4,4"/>
<!-- node1 -->
<g id="node1" class="node">
<title>node1</title>
<polygon fill="none" stroke="black" points="89,-36 35,-36 35,0 89,0 89,-36"/>
<text text-anchor="middle" x="62" y="-12.95" font-family="Times,serif" font-size="14.00">6</text>
</g>
<!-- node3 -->
<g id="node2" class="node">
<title>node3</title>
<polygon fill="none" stroke="black" points="54,-124.5 0,-124.5 0,-88.5 54,-88.5 54,-124.5"/>
<text text-anchor="middle" x="27" y="-101.45" font-family="Times,serif" font-size="14.00">9</text>
</g>
<!-- node1&#45;&gt;node3 -->
<g id="edge1" class="edge">
<title>node1&#45;&gt;node3</title>
<path fill="none" stroke="black" d="M55.09,-36.09C50.27,-47.98 43.76,-64.09 38.21,-77.8"/>
<polygon fill="black" stroke="black" points="35.09,-76.16 34.59,-86.75 41.58,-78.79 35.09,-76.16"/>
<text text-anchor="middle" x="52.12" y="-57.2" font-family="Times,serif" font-size="14.00">&gt;</text>
</g>
<!-- node2 -->
<g id="node5" class="node">
<title>node2</title>
<polygon fill="none" stroke="black" points="126,-124.5 72,-124.5 72,-88.5 126,-88.5 126,-124.5"/>
<text text-anchor="middle" x="99" y="-101.45" font-family="Times,serif" font-size="14.00">1</text>
</g>
<!-- node1&#45;&gt;node2 -->
<g id="edge4" class="edge">
<title>node1&#45;&gt;node2</title>
<path fill="none" stroke="black" d="M69.31,-36.09C74.4,-47.98 81.29,-64.09 87.15,-77.8"/>
<polygon fill="black" stroke="black" points="83.83,-78.94 90.98,-86.76 90.27,-76.19 83.83,-78.94"/>
<text text-anchor="middle" x="88.12" y="-57.2" font-family="Times,serif" font-size="14.00">&lt;</text>
</g>
<!-- node6 -->
<g id="node3" class="node">
<title>node6</title>
<polygon fill="none" stroke="black" points="54,-213 0,-213 0,-177 54,-177 54,-213"/>
<text text-anchor="middle" x="27" y="-189.95" font-family="Times,serif" font-size="14.00">8</text>
</g>
<!-- node3&#45;&gt;node6 -->
<g id="edge2" class="edge">
<title>node3&#45;&gt;node6</title>
<path fill="none" stroke="black" d="M27,-124.59C27,-136.24 27,-151.95 27,-165.48"/>
<polygon fill="black" stroke="black" points="23.5,-165.14 27,-175.14 30.5,-165.14 23.5,-165.14"/>
<text text-anchor="middle" x="31.12" y="-145.7" font-family="Times,serif" font-size="14.00">&lt;</text>
</g>
<!-- node12 -->
<g id="node4" class="node">
<title>node12</title>
<path fill="green" stroke="black" d="M42,-301.5C42,-301.5 12,-301.5 12,-301.5 6,-301.5 0,-295.5 0,-289.5 0,-289.5 0,-277.5 0,-277.5 0,-271.5 6,-265.5 12,-265.5 12,-265.5 42,-265.5 42,-265.5 48,-265.5 54,-271.5 54,-277.5 54,-277.5 54,-289.5 54,-289.5 54,-295.5 48,-301.5 42,-301.5"/>
<text text-anchor="middle" x="27" y="-278.45" font-family="Times,serif" font-size="14.00">7</text>
</g>
<!-- node6&#45;&gt;node12 -->
<g id="edge3" class="edge">
<title>node6&#45;&gt;node12</title>
<path fill="none" stroke="black" d="M27,-213.09C27,-224.74 27,-240.45 27,-253.98"/>
<polygon fill="black" stroke="black" points="23.5,-253.64 27,-263.64 30.5,-253.64 23.5,-253.64"/>
<text text-anchor="middle" x="31.12" y="-234.2" font-family="Times,serif" font-size="14.00">&lt;</text>
</g>
<!-- node5 -->
<g id="node6" class="node">
<title>node5</title>
<polygon fill="none" stroke="black" points="126,-213 72,-213 72,-177 126,-177 126,-213"/>
<text text-anchor="middle" x="99" y="-189.95" font-family="Times,serif" font-size="14.00">2</text>
</g>
<!-- node2&#45;&gt;node5 -->
<g id="edge5" class="edge">
<title>node2&#45;&gt;node5</title>
<path fill="none" stroke="black" d="M99,-124.59C99,-136.24 99,-151.95 99,-165.48"/>
<polygon fill="black" stroke="black" points="95.5,-165.14 99,-175.14 102.5,-165.14 95.5,-165.14"/>
<text text-anchor="middle" x="103.12" y="-145.7" font-family="Times,serif" font-size="14.00">&gt;</text>
</g>
<!-- node4 -->
<g id="node10" class="node">
<title>node4</title>
<path fill="green" stroke="black" d="M186,-213C186,-213 156,-213 156,-213 150,-213 144,-207 144,-201 144,-201 144,-189 144,-189 144,-183 150,-177 156,-177 156,-177 186,-177 186,-177 192,-177 198,-183 198,-189 198,-189 198,-201 198,-201 198,-207 192,-213 186,-213"/>
<text text-anchor="middle" x="171" y="-189.95" font-family="Times,serif" font-size="14.00">0</text>
</g>
<!-- node2&#45;&gt;node4 -->
<g id="edge9" class="edge">
<title>node2&#45;&gt;node4</title>
<path fill="none" stroke="black" d="M113.22,-124.59C123.51,-136.95 137.6,-153.87 149.29,-167.92"/>
<polygon fill="black" stroke="black" points="146.5,-170.04 155.59,-175.49 151.88,-165.56 146.5,-170.04"/>
<text text-anchor="middle" x="145.12" y="-145.7" font-family="Times,serif" font-size="14.00">&lt;</text>
</g>
<!-- node11 -->
<g id="node7" class="node">
<title>node11</title>
<polygon fill="none" stroke="black" points="126,-301.5 72,-301.5 72,-265.5 126,-265.5 126,-301.5"/>
<text text-anchor="middle" x="99" y="-278.45" font-family="Times,serif" font-size="14.00">5</text>
</g>
<!-- node5&#45;&gt;node11 -->
<g id="edge6" class="edge">
<title>node5&#45;&gt;node11</title>
<path fill="none" stroke="black" d="M99,-213.09C99,-224.74 99,-240.45 99,-253.98"/>
<polygon fill="black" stroke="black" points="95.5,-253.64 99,-263.64 102.5,-253.64 95.5,-253.64"/>
<text text-anchor="middle" x="103.12" y="-234.2" font-family="Times,serif" font-size="14.00">&gt;</text>
</g>
<!-- node22 -->
<g id="node8" class="node">
<title>node22</title>
<polygon fill="none" stroke="black" points="126,-390 72,-390 72,-354 126,-354 126,-390"/>
<text text-anchor="middle" x="99" y="-366.95" font-family="Times,serif" font-size="14.00">4</text>
</g>
<!-- node11&#45;&gt;node22 -->
<g id="edge7" class="edge">
<title>node11&#45;&gt;node22</title>
<path fill="none" stroke="black" d="M99,-301.59C99,-313.24 99,-328.95 99,-342.48"/>
<polygon fill="black" stroke="black" points="95.5,-342.14 99,-352.14 102.5,-342.14 95.5,-342.14"/>
<text text-anchor="middle" x="103.12" y="-322.7" font-family="Times,serif" font-size="14.00">&lt;</text>
</g>
<!-- node44 -->
<g id="node9" class="node">
<title>node44</title>
<path fill="green" stroke="black" d="M114,-478.5C114,-478.5 84,-478.5 84,-478.5 78,-478.5 72,-472.5 72,-466.5 72,-466.5 72,-454.5 72,-454.5 72,-448.5 78,-442.5 84,-442.5 84,-442.5 114,-442.5 114,-442.5 120,-442.5 126,-448.5 126,-454.5 126,-454.5 126,-466.5 126,-466.5 126,-472.5 120,-478.5 114,-478.5"/>
<text text-anchor="middle" x="99" y="-455.45" font-family="Times,serif" font-size="14.00">3</text>
</g>
<!-- node22&#45;&gt;node44 -->
<g id="edge8" class="edge">
<title>node22&#45;&gt;node44</title>
<path fill="none" stroke="black" d="M99,-390.09C99,-401.74 99,-417.45 99,-430.98"/>
<polygon fill="black" stroke="black" points="95.5,-430.64 99,-440.64 102.5,-430.64 95.5,-430.64"/>
<text text-anchor="middle" x="103.12" y="-411.2" font-family="Times,serif" font-size="14.00">&lt;</text>
</g>
</g>
</svg>
